<svg width="214" height="154" viewBox="0 0 214 154" fill="none" xmlns="http://www.w3.org/2000/svg">
<circle cx="2.76921" cy="1.77568" r="1.77568" fill="#EBEBEB"/>
<circle cx="13.7692" cy="1.77568" r="1.77568" fill="#EBEBEB"/>
<circle cx="24.7692" cy="1.77568" r="1.77568" fill="#EBEBEB"/>
<circle cx="35.7692" cy="1.77568" r="1.77568" fill="#EBEBEB"/>
<circle cx="82.7692" cy="1.77568" r="1.77568" fill="#EBEBEB"/>
<circle cx="93.7692" cy="1.77568" r="1.77568" fill="#EBEBEB"/>
<circle cx="104.769" cy="1.77568" r="1.77568" fill="#EBEBEB"/>
<circle cx="79.7692" cy="1.77568" r="1.77568" fill="#EBEBEB"/>
<circle cx="90.7692" cy="1.77568" r="1.77568" fill="#EBEBEB"/>
<circle cx="101.769" cy="1.77568" r="1.77568" fill="#EBEBEB"/>
<circle cx="112.769" cy="1.77568" r="1.77568" fill="#EBEBEB"/>
<circle cx="123.769" cy="1.77568" r="1.77568" fill="#EBEBEB"/>
<circle cx="134.769" cy="1.77568" r="1.77568" fill="#EBEBEB"/>
<circle cx="145.769" cy="1.77568" r="1.77568" fill="#EBEBEB"/>
<circle cx="156.769" cy="1.77568" r="1.77568" fill="#EBEBEB"/>
<circle cx="167.769" cy="1.77568" r="1.77568" fill="#EBEBEB"/>
<circle cx="178.769" cy="1.77568" r="1.77568" fill="#EBEBEB"/>
<circle cx="189.769" cy="1.77568" r="1.77568" fill="#EBEBEB"/>
<circle cx="200.769" cy="1.77568" r="1.77568" fill="#EBEBEB"/>
<circle cx="211.769" cy="1.77568" r="1.77568" fill="#EBEBEB"/>
<circle cx="2.76921" cy="11.7757" r="1.77568" fill="#EBEBEB"/>
<circle cx="13.7692" cy="11.7757" r="1.77568" fill="#EBEBEB"/>
<circle cx="24.7692" cy="11.7757" r="1.77568" fill="#EBEBEB"/>
<circle cx="35.7692" cy="11.7757" r="1.77568" fill="#EBEBEB"/>
<circle cx="82.7692" cy="11.7757" r="1.77568" fill="#EBEBEB"/>
<circle cx="93.7692" cy="11.7757" r="1.77568" fill="#EBEBEB"/>
<circle cx="104.769" cy="11.7757" r="1.77568" fill="#EBEBEB"/>
<circle cx="79.7692" cy="11.7757" r="1.77568" fill="#EBEBEB"/>
<circle cx="90.7692" cy="11.7757" r="1.77568" fill="#EBEBEB"/>
<circle cx="101.769" cy="11.7757" r="1.77568" fill="#EBEBEB"/>
<circle cx="112.769" cy="11.7757" r="1.77568" fill="#EBEBEB"/>
<circle cx="123.769" cy="11.7757" r="1.77568" fill="#EBEBEB"/>
<circle cx="134.769" cy="11.7757" r="1.77568" fill="#EBEBEB"/>
<circle cx="145.769" cy="11.7757" r="1.77568" fill="#EBEBEB"/>
<circle cx="156.769" cy="11.7757" r="1.77568" fill="#EBEBEB"/>
<circle cx="167.769" cy="11.7757" r="1.77568" fill="#EBEBEB"/>
<circle cx="178.769" cy="11.7757" r="1.77568" fill="#EBEBEB"/>
<circle cx="189.769" cy="11.7757" r="1.77568" fill="#EBEBEB"/>
<circle cx="200.769" cy="11.7757" r="1.77568" fill="#EBEBEB"/>
<circle cx="211.769" cy="11.7757" r="1.77568" fill="#EBEBEB"/>
<circle cx="2.76921" cy="21.7757" r="1.77568" fill="#EBEBEB"/>
<circle cx="13.7692" cy="21.7757" r="1.77568" fill="#EBEBEB"/>
<circle cx="24.7692" cy="21.7757" r="1.77568" fill="#EBEBEB"/>
<circle cx="35.7692" cy="21.7757" r="1.77568" fill="#EBEBEB"/>
<circle cx="82.7692" cy="21.7757" r="1.77568" fill="#EBEBEB"/>
<circle cx="93.7692" cy="21.7757" r="1.77568" fill="#EBEBEB"/>
<circle cx="104.769" cy="21.7757" r="1.77568" fill="#EBEBEB"/>
<circle cx="79.7692" cy="21.7757" r="1.77568" fill="#EBEBEB"/>
<circle cx="90.7692" cy="21.7757" r="1.77568" fill="#EBEBEB"/>
<circle cx="101.769" cy="21.7757" r="1.77568" fill="#EBEBEB"/>
<circle cx="112.769" cy="21.7757" r="1.77568" fill="#EBEBEB"/>
<circle cx="123.769" cy="21.7757" r="1.77568" fill="#EBEBEB"/>
<circle cx="134.769" cy="21.7757" r="1.77568" fill="#EBEBEB"/>
<circle cx="145.769" cy="21.7757" r="1.77568" fill="#EBEBEB"/>
<circle cx="156.769" cy="21.7757" r="1.77568" fill="#EBEBEB"/>
<circle cx="167.769" cy="21.7757" r="1.77568" fill="#EBEBEB"/>
<circle cx="178.769" cy="21.7757" r="1.77568" fill="#EBEBEB"/>
<circle cx="189.769" cy="21.7757" r="1.77568" fill="#EBEBEB"/>
<circle cx="200.769" cy="21.7757" r="1.77568" fill="#EBEBEB"/>
<circle cx="211.769" cy="21.7757" r="1.77568" fill="#EBEBEB"/>
<circle cx="2.76921" cy="31.7757" r="1.77568" fill="#EBEBEB"/>
<circle cx="13.7692" cy="31.7757" r="1.77568" fill="#EBEBEB"/>
<circle cx="24.7692" cy="31.7757" r="1.77568" fill="#EBEBEB"/>
<circle cx="35.7692" cy="31.7757" r="1.77568" fill="#EBEBEB"/>
<circle cx="82.7692" cy="31.7757" r="1.77568" fill="#EBEBEB"/>
<circle cx="93.7692" cy="31.7757" r="1.77568" fill="#EBEBEB"/>
<circle cx="104.769" cy="31.7757" r="1.77568" fill="#EBEBEB"/>
<circle cx="79.7692" cy="31.7757" r="1.77568" fill="#EBEBEB"/>
<circle cx="90.7692" cy="31.7757" r="1.77568" fill="#EBEBEB"/>
<circle cx="101.769" cy="31.7757" r="1.77568" fill="#EBEBEB"/>
<circle cx="112.769" cy="31.7757" r="1.77568" fill="#EBEBEB"/>
<circle cx="123.769" cy="31.7757" r="1.77568" fill="#EBEBEB"/>
<circle cx="134.769" cy="31.7757" r="1.77568" fill="#EBEBEB"/>
<circle cx="145.769" cy="31.7757" r="1.77568" fill="#EBEBEB"/>
<circle cx="156.769" cy="31.7757" r="1.77568" fill="#EBEBEB"/>
<circle cx="167.769" cy="31.7757" r="1.77568" fill="#EBEBEB"/>
<circle cx="178.769" cy="31.7757" r="1.77568" fill="#EBEBEB"/>
<circle cx="189.769" cy="31.7757" r="1.77568" fill="#EBEBEB"/>
<circle cx="200.769" cy="31.7757" r="1.77568" fill="#EBEBEB"/>
<circle cx="211.769" cy="31.7757" r="1.77568" fill="#EBEBEB"/>
<circle cx="2.76921" cy="41.7757" r="1.77568" fill="#EBEBEB"/>
<circle cx="13.7692" cy="41.7757" r="1.77568" fill="#EBEBEB"/>
<circle cx="24.7692" cy="41.7757" r="1.77568" fill="#EBEBEB"/>
<circle cx="35.7692" cy="41.7757" r="1.77568" fill="#EBEBEB"/>
<circle cx="82.7692" cy="41.7757" r="1.77568" fill="#EBEBEB"/>
<circle cx="93.7692" cy="41.7757" r="1.77568" fill="#EBEBEB"/>
<circle cx="104.769" cy="41.7757" r="1.77568" fill="#EBEBEB"/>
<circle cx="79.7692" cy="41.7757" r="1.77568" fill="#EBEBEB"/>
<circle cx="90.7692" cy="41.7757" r="1.77568" fill="#EBEBEB"/>
<circle cx="101.769" cy="41.7757" r="1.77568" fill="#EBEBEB"/>
<circle cx="112.769" cy="41.7757" r="1.77568" fill="#EBEBEB"/>
<circle cx="123.769" cy="41.7757" r="1.77568" fill="#EBEBEB"/>
<circle cx="134.769" cy="41.7757" r="1.77568" fill="#EBEBEB"/>
<circle cx="145.769" cy="41.7757" r="1.77568" fill="#EBEBEB"/>
<circle cx="156.769" cy="41.7757" r="1.77568" fill="#EBEBEB"/>
<circle cx="167.769" cy="41.7757" r="1.77568" fill="#EBEBEB"/>
<circle cx="178.769" cy="41.7757" r="1.77568" fill="#EBEBEB"/>
<circle cx="189.769" cy="41.7757" r="1.77568" fill="#EBEBEB"/>
<circle cx="200.769" cy="41.7757" r="1.77568" fill="#EBEBEB"/>
<circle cx="211.769" cy="41.7757" r="1.77568" fill="#EBEBEB"/>
<circle cx="2.76921" cy="51.7757" r="1.77568" fill="#EBEBEB"/>
<circle cx="13.7692" cy="51.7757" r="1.77568" fill="#EBEBEB"/>
<circle cx="24.7692" cy="51.7757" r="1.77568" fill="#EBEBEB"/>
<circle cx="35.7692" cy="51.7757" r="1.77568" fill="#EBEBEB"/>
<circle cx="82.7692" cy="51.7757" r="1.77568" fill="#EBEBEB"/>
<circle cx="93.7692" cy="51.7757" r="1.77568" fill="#EBEBEB"/>
<circle cx="104.769" cy="51.7757" r="1.77568" fill="#EBEBEB"/>
<circle cx="79.7692" cy="51.7757" r="1.77568" fill="#EBEBEB"/>
<circle cx="90.7692" cy="51.7757" r="1.77568" fill="#EBEBEB"/>
<circle cx="101.769" cy="51.7757" r="1.77568" fill="#EBEBEB"/>
<circle cx="112.769" cy="51.7757" r="1.77568" fill="#EBEBEB"/>
<circle cx="123.769" cy="51.7757" r="1.77568" fill="#EBEBEB"/>
<circle cx="134.769" cy="51.7757" r="1.77568" fill="#EBEBEB"/>
<circle cx="145.769" cy="51.7757" r="1.77568" fill="#EBEBEB"/>
<circle cx="156.769" cy="51.7757" r="1.77568" fill="#EBEBEB"/>
<circle cx="167.769" cy="51.7757" r="1.77568" fill="#EBEBEB"/>
<circle cx="178.769" cy="51.7757" r="1.77568" fill="#EBEBEB"/>
<circle cx="189.769" cy="51.7757" r="1.77568" fill="#EBEBEB"/>
<circle cx="200.769" cy="51.7757" r="1.77568" fill="#EBEBEB"/>
<circle cx="211.769" cy="51.7757" r="1.77568" fill="#EBEBEB"/>
<circle cx="2.76921" cy="61.7757" r="1.77568" fill="#EBEBEB"/>
<circle cx="13.7692" cy="61.7757" r="1.77568" fill="#EBEBEB"/>
<circle cx="24.7692" cy="61.7757" r="1.77568" fill="#EBEBEB"/>
<circle cx="35.7692" cy="61.7757" r="1.77568" fill="#EBEBEB"/>
<circle cx="82.7692" cy="61.7757" r="1.77568" fill="#EBEBEB"/>
<circle cx="93.7692" cy="61.7757" r="1.77568" fill="#EBEBEB"/>
<circle cx="104.769" cy="61.7757" r="1.77568" fill="#EBEBEB"/>
<circle cx="79.7692" cy="61.7757" r="1.77568" fill="#EBEBEB"/>
<circle cx="90.7692" cy="61.7757" r="1.77568" fill="#EBEBEB"/>
<circle cx="101.769" cy="61.7757" r="1.77568" fill="#EBEBEB"/>
<circle cx="112.769" cy="61.7757" r="1.77568" fill="#EBEBEB"/>
<circle cx="123.769" cy="61.7757" r="1.77568" fill="#EBEBEB"/>
<circle cx="134.769" cy="61.7757" r="1.77568" fill="#EBEBEB"/>
<circle cx="145.769" cy="61.7757" r="1.77568" fill="#EBEBEB"/>
<circle cx="156.769" cy="61.7757" r="1.77568" fill="#EBEBEB"/>
<circle cx="167.769" cy="61.7757" r="1.77568" fill="#EBEBEB"/>
<circle cx="178.769" cy="61.7757" r="1.77568" fill="#EBEBEB"/>
<circle cx="189.769" cy="61.7757" r="1.77568" fill="#EBEBEB"/>
<circle cx="200.769" cy="61.7757" r="1.77568" fill="#EBEBEB"/>
<circle cx="211.769" cy="61.7757" r="1.77568" fill="#EBEBEB"/>
<circle cx="2.76921" cy="71.7757" r="1.77568" fill="#EBEBEB"/>
<circle cx="13.7692" cy="71.7757" r="1.77568" fill="#EBEBEB"/>
<circle cx="24.7692" cy="71.7757" r="1.77568" fill="#EBEBEB"/>
<circle cx="35.7692" cy="71.7757" r="1.77568" fill="#EBEBEB"/>
<circle cx="82.7692" cy="71.7757" r="1.77568" fill="#EBEBEB"/>
<circle cx="93.7692" cy="71.7757" r="1.77568" fill="#EBEBEB"/>
<circle cx="104.769" cy="71.7757" r="1.77568" fill="#EBEBEB"/>
<circle cx="79.7692" cy="71.7757" r="1.77568" fill="#EBEBEB"/>
<circle cx="90.7692" cy="71.7757" r="1.77568" fill="#EBEBEB"/>
<circle cx="101.769" cy="71.7757" r="1.77568" fill="#EBEBEB"/>
<circle cx="112.769" cy="71.7757" r="1.77568" fill="#EBEBEB"/>
<circle cx="123.769" cy="71.7757" r="1.77568" fill="#EBEBEB"/>
<circle cx="134.769" cy="71.7757" r="1.77568" fill="#EBEBEB"/>
<circle cx="145.769" cy="71.7757" r="1.77568" fill="#EBEBEB"/>
<circle cx="156.769" cy="71.7757" r="1.77568" fill="#EBEBEB"/>
<circle cx="167.769" cy="71.7757" r="1.77568" fill="#EBEBEB"/>
<circle cx="178.769" cy="71.7757" r="1.77568" fill="#EBEBEB"/>
<circle cx="189.769" cy="71.7757" r="1.77568" fill="#EBEBEB"/>
<circle cx="200.769" cy="71.7757" r="1.77568" fill="#EBEBEB"/>
<circle cx="211.769" cy="71.7757" r="1.77568" fill="#EBEBEB"/>
<circle cx="2.76921" cy="81.7757" r="1.77568" fill="#EBEBEB"/>
<circle cx="13.7692" cy="81.7757" r="1.77568" fill="#EBEBEB"/>
<circle cx="24.7692" cy="81.7757" r="1.77568" fill="#EBEBEB"/>
<circle cx="35.7692" cy="81.7757" r="1.77568" fill="#EBEBEB"/>
<circle cx="82.7692" cy="81.7757" r="1.77568" fill="#EBEBEB"/>
<circle cx="93.7692" cy="81.7757" r="1.77568" fill="#EBEBEB"/>
<circle cx="104.769" cy="81.7757" r="1.77568" fill="#EBEBEB"/>
<circle cx="79.7692" cy="81.7757" r="1.77568" fill="#EBEBEB"/>
<circle cx="90.7692" cy="81.7757" r="1.77568" fill="#EBEBEB"/>
<circle cx="101.769" cy="81.7757" r="1.77568" fill="#EBEBEB"/>
<circle cx="112.769" cy="81.7757" r="1.77568" fill="#EBEBEB"/>
<circle cx="123.769" cy="81.7757" r="1.77568" fill="#EBEBEB"/>
<circle cx="134.769" cy="81.7757" r="1.77568" fill="#EBEBEB"/>
<circle cx="145.769" cy="81.7757" r="1.77568" fill="#EBEBEB"/>
<circle cx="156.769" cy="81.7757" r="1.77568" fill="#EBEBEB"/>
<circle cx="167.769" cy="81.7757" r="1.77568" fill="#EBEBEB"/>
<circle cx="178.769" cy="81.7757" r="1.77568" fill="#EBEBEB"/>
<circle cx="189.769" cy="81.7757" r="1.77568" fill="#EBEBEB"/>
<circle cx="200.769" cy="81.7757" r="1.77568" fill="#EBEBEB"/>
<circle cx="211.769" cy="81.7757" r="1.77568" fill="#EBEBEB"/>
<circle cx="2.76921" cy="91.7757" r="1.77568" fill="#EBEBEB"/>
<circle cx="13.7692" cy="91.7757" r="1.77568" fill="#EBEBEB"/>
<circle cx="24.7692" cy="91.7757" r="1.77568" fill="#EBEBEB"/>
<circle cx="35.7692" cy="91.7757" r="1.77568" fill="#EBEBEB"/>
<circle cx="82.7692" cy="91.7757" r="1.77568" fill="#EBEBEB"/>
<circle cx="93.7692" cy="91.7757" r="1.77568" fill="#EBEBEB"/>
<circle cx="104.769" cy="91.7757" r="1.77568" fill="#EBEBEB"/>
<circle cx="79.7692" cy="91.7757" r="1.77568" fill="#EBEBEB"/>
<circle cx="90.7692" cy="91.7757" r="1.77568" fill="#EBEBEB"/>
<circle cx="101.769" cy="91.7757" r="1.77568" fill="#EBEBEB"/>
<circle cx="112.769" cy="91.7757" r="1.77568" fill="#EBEBEB"/>
<circle cx="123.769" cy="91.7757" r="1.77568" fill="#EBEBEB"/>
<circle cx="134.769" cy="91.7757" r="1.77568" fill="#EBEBEB"/>
<circle cx="145.769" cy="91.7757" r="1.77568" fill="#EBEBEB"/>
<circle cx="156.769" cy="91.7757" r="1.77568" fill="#EBEBEB"/>
<circle cx="167.769" cy="91.7757" r="1.77568" fill="#EBEBEB"/>
<circle cx="178.769" cy="91.7757" r="1.77568" fill="#EBEBEB"/>
<circle cx="189.769" cy="91.7757" r="1.77568" fill="#EBEBEB"/>
<circle cx="200.769" cy="91.7757" r="1.77568" fill="#EBEBEB"/>
<circle cx="211.769" cy="91.7757" r="1.77568" fill="#EBEBEB"/>
<circle cx="2.76921" cy="101.776" r="1.77568" fill="#EBEBEB"/>
<circle cx="13.7692" cy="101.776" r="1.77568" fill="#EBEBEB"/>
<circle cx="24.7692" cy="101.776" r="1.77568" fill="#EBEBEB"/>
<circle cx="35.7692" cy="101.776" r="1.77568" fill="#EBEBEB"/>
<circle cx="82.7692" cy="101.776" r="1.77568" fill="#EBEBEB"/>
<circle cx="93.7692" cy="101.776" r="1.77568" fill="#EBEBEB"/>
<circle cx="104.769" cy="101.776" r="1.77568" fill="#EBEBEB"/>
<circle cx="79.7692" cy="101.776" r="1.77568" fill="#EBEBEB"/>
<circle cx="90.7692" cy="101.776" r="1.77568" fill="#EBEBEB"/>
<circle cx="101.769" cy="101.776" r="1.77568" fill="#EBEBEB"/>
<circle cx="112.769" cy="101.776" r="1.77568" fill="#EBEBEB"/>
<circle cx="123.769" cy="101.776" r="1.77568" fill="#EBEBEB"/>
<circle cx="134.769" cy="101.776" r="1.77568" fill="#EBEBEB"/>
<circle cx="145.769" cy="101.776" r="1.77568" fill="#EBEBEB"/>
<circle cx="156.769" cy="101.776" r="1.77568" fill="#EBEBEB"/>
<circle cx="167.769" cy="101.776" r="1.77568" fill="#EBEBEB"/>
<circle cx="178.769" cy="101.776" r="1.77568" fill="#EBEBEB"/>
<circle cx="189.769" cy="101.776" r="1.77568" fill="#EBEBEB"/>
<circle cx="200.769" cy="101.776" r="1.77568" fill="#EBEBEB"/>
<circle cx="211.769" cy="101.776" r="1.77568" fill="#EBEBEB"/>
<circle cx="2.76921" cy="111.776" r="1.77568" fill="#EBEBEB"/>
<circle cx="13.7692" cy="111.776" r="1.77568" fill="#EBEBEB"/>
<circle cx="24.7692" cy="111.776" r="1.77568" fill="#EBEBEB"/>
<circle cx="35.7692" cy="111.776" r="1.77568" fill="#EBEBEB"/>
<circle cx="82.7692" cy="111.776" r="1.77568" fill="#EBEBEB"/>
<circle cx="93.7692" cy="111.776" r="1.77568" fill="#EBEBEB"/>
<circle cx="104.769" cy="111.776" r="1.77568" fill="#EBEBEB"/>
<circle cx="79.7692" cy="111.776" r="1.77568" fill="#EBEBEB"/>
<circle cx="90.7692" cy="111.776" r="1.77568" fill="#EBEBEB"/>
<circle cx="101.769" cy="111.776" r="1.77568" fill="#EBEBEB"/>
<circle cx="112.769" cy="111.776" r="1.77568" fill="#EBEBEB"/>
<circle cx="123.769" cy="111.776" r="1.77568" fill="#EBEBEB"/>
<circle cx="134.769" cy="111.776" r="1.77568" fill="#EBEBEB"/>
<circle cx="145.769" cy="111.776" r="1.77568" fill="#EBEBEB"/>
<circle cx="156.769" cy="111.776" r="1.77568" fill="#EBEBEB"/>
<circle cx="167.769" cy="111.776" r="1.77568" fill="#EBEBEB"/>
<circle cx="178.769" cy="111.776" r="1.77568" fill="#EBEBEB"/>
<circle cx="189.769" cy="111.776" r="1.77568" fill="#EBEBEB"/>
<circle cx="200.769" cy="111.776" r="1.77568" fill="#EBEBEB"/>
<circle cx="211.769" cy="111.776" r="1.77568" fill="#EBEBEB"/>
<circle cx="2.76921" cy="121.776" r="1.77568" fill="#EBEBEB"/>
<circle cx="13.7692" cy="121.776" r="1.77568" fill="#EBEBEB"/>
<circle cx="24.7692" cy="121.776" r="1.77568" fill="#EBEBEB"/>
<circle cx="35.7692" cy="121.776" r="1.77568" fill="#EBEBEB"/>
<circle cx="82.7692" cy="121.776" r="1.77568" fill="#EBEBEB"/>
<circle cx="93.7692" cy="121.776" r="1.77568" fill="#EBEBEB"/>
<circle cx="104.769" cy="121.776" r="1.77568" fill="#EBEBEB"/>
<circle cx="79.7692" cy="121.776" r="1.77568" fill="#EBEBEB"/>
<circle cx="90.7692" cy="121.776" r="1.77568" fill="#EBEBEB"/>
<circle cx="101.769" cy="121.776" r="1.77568" fill="#EBEBEB"/>
<circle cx="112.769" cy="121.776" r="1.77568" fill="#EBEBEB"/>
<circle cx="123.769" cy="121.776" r="1.77568" fill="#EBEBEB"/>
<circle cx="134.769" cy="121.776" r="1.77568" fill="#EBEBEB"/>
<circle cx="145.769" cy="121.776" r="1.77568" fill="#EBEBEB"/>
<circle cx="156.769" cy="121.776" r="1.77568" fill="#EBEBEB"/>
<circle cx="167.769" cy="121.776" r="1.77568" fill="#EBEBEB"/>
<circle cx="178.769" cy="121.776" r="1.77568" fill="#EBEBEB"/>
<circle cx="189.769" cy="121.776" r="1.77568" fill="#EBEBEB"/>
<circle cx="200.769" cy="121.776" r="1.77568" fill="#EBEBEB"/>
<circle cx="211.769" cy="121.776" r="1.77568" fill="#EBEBEB"/>
<circle cx="2.76921" cy="131.776" r="1.77568" fill="#EBEBEB"/>
<circle cx="13.7692" cy="131.776" r="1.77568" fill="#EBEBEB"/>
<circle cx="24.7692" cy="131.776" r="1.77568" fill="#EBEBEB"/>
<circle cx="35.7692" cy="131.776" r="1.77568" fill="#EBEBEB"/>
<circle cx="82.7692" cy="131.776" r="1.77568" fill="#EBEBEB"/>
<circle cx="93.7692" cy="131.776" r="1.77568" fill="#EBEBEB"/>
<circle cx="104.769" cy="131.776" r="1.77568" fill="#EBEBEB"/>
<circle cx="79.7692" cy="131.776" r="1.77568" fill="#EBEBEB"/>
<circle cx="90.7692" cy="131.776" r="1.77568" fill="#EBEBEB"/>
<circle cx="101.769" cy="131.776" r="1.77568" fill="#EBEBEB"/>
<circle cx="112.769" cy="131.776" r="1.77568" fill="#EBEBEB"/>
<circle cx="123.769" cy="131.776" r="1.77568" fill="#EBEBEB"/>
<circle cx="134.769" cy="131.776" r="1.77568" fill="#EBEBEB"/>
<circle cx="145.769" cy="131.776" r="1.77568" fill="#EBEBEB"/>
<circle cx="156.769" cy="131.776" r="1.77568" fill="#EBEBEB"/>
<circle cx="167.769" cy="131.776" r="1.77568" fill="#EBEBEB"/>
<circle cx="178.769" cy="131.776" r="1.77568" fill="#EBEBEB"/>
<circle cx="189.769" cy="131.776" r="1.77568" fill="#EBEBEB"/>
<circle cx="200.769" cy="131.776" r="1.77568" fill="#EBEBEB"/>
<circle cx="211.769" cy="131.776" r="1.77568" fill="#EBEBEB"/>
<circle cx="2.76921" cy="141.776" r="1.77568" fill="#EBEBEB"/>
<circle cx="13.7692" cy="141.776" r="1.77568" fill="#EBEBEB"/>
<circle cx="24.7692" cy="141.776" r="1.77568" fill="#EBEBEB"/>
<circle cx="35.7692" cy="141.776" r="1.77568" fill="#EBEBEB"/>
<circle cx="82.7692" cy="141.776" r="1.77568" fill="#EBEBEB"/>
<circle cx="93.7692" cy="141.776" r="1.77568" fill="#EBEBEB"/>
<circle cx="104.769" cy="141.776" r="1.77568" fill="#EBEBEB"/>
<circle cx="79.7692" cy="141.776" r="1.77568" fill="#EBEBEB"/>
<circle cx="90.7692" cy="141.776" r="1.77568" fill="#EBEBEB"/>
<circle cx="101.769" cy="141.776" r="1.77568" fill="#EBEBEB"/>
<circle cx="112.769" cy="141.776" r="1.77568" fill="#EBEBEB"/>
<circle cx="123.769" cy="141.776" r="1.77568" fill="#EBEBEB"/>
<circle cx="134.769" cy="141.776" r="1.77568" fill="#EBEBEB"/>
<circle cx="145.769" cy="141.776" r="1.77568" fill="#EBEBEB"/>
<circle cx="156.769" cy="141.776" r="1.77568" fill="#EBEBEB"/>
<circle cx="167.769" cy="141.776" r="1.77568" fill="#EBEBEB"/>
<circle cx="178.769" cy="141.776" r="1.77568" fill="#EBEBEB"/>
<circle cx="189.769" cy="141.776" r="1.77568" fill="#EBEBEB"/>
<circle cx="200.769" cy="141.776" r="1.77568" fill="#EBEBEB"/>
<circle cx="211.769" cy="141.776" r="1.77568" fill="#EBEBEB"/>
<circle cx="2.76921" cy="151.776" r="1.77568" fill="#EBEBEB"/>
<circle cx="13.7692" cy="151.776" r="1.77568" fill="#EBEBEB"/>
<circle cx="24.7692" cy="151.776" r="1.77568" fill="#EBEBEB"/>
<circle cx="35.7692" cy="151.776" r="1.77568" fill="#EBEBEB"/>
<circle cx="82.7692" cy="151.776" r="1.77568" fill="#EBEBEB"/>
<circle cx="93.7692" cy="151.776" r="1.77568" fill="#EBEBEB"/>
<circle cx="104.769" cy="151.776" r="1.77568" fill="#EBEBEB"/>
<circle cx="79.7692" cy="151.776" r="1.77568" fill="#EBEBEB"/>
<circle cx="90.7692" cy="151.776" r="1.77568" fill="#EBEBEB"/>
<circle cx="101.769" cy="151.776" r="1.77568" fill="#EBEBEB"/>
<circle cx="112.769" cy="151.776" r="1.77568" fill="#EBEBEB"/>
<circle cx="123.769" cy="151.776" r="1.77568" fill="#EBEBEB"/>
<circle cx="134.769" cy="151.776" r="1.77568" fill="#EBEBEB"/>
<circle cx="145.769" cy="151.776" r="1.77568" fill="#EBEBEB"/>
<circle cx="156.769" cy="151.776" r="1.77568" fill="#EBEBEB"/>
<circle cx="167.769" cy="151.776" r="1.77568" fill="#EBEBEB"/>
<circle cx="178.769" cy="151.776" r="1.77568" fill="#EBEBEB"/>
<circle cx="189.769" cy="151.776" r="1.77568" fill="#EBEBEB"/>
<circle cx="200.769" cy="151.776" r="1.77568" fill="#EBEBEB"/>
<circle cx="211.769" cy="151.776" r="1.77568" fill="#EBEBEB"/>
</svg>
