<svg width="1375" height="310" viewBox="0 0 1375 310" fill="none" xmlns="http://www.w3.org/2000/svg">
<path d="M195 99H291.5V195H413" stroke="#E0E0E0" stroke-width="2"/>
<path d="M965 99H1061.5V205H1183" stroke="#E0E0E0" stroke-width="2"/>
<path d="M581 194H677.5V99H799" stroke="#E0E0E0" stroke-width="2"/>
<g filter="url(#filter0_d_0_61)">
<path d="M16 43C16 20.9086 33.9086 3 56 3H201V145C201 167.091 183.091 185 161 185H16V43Z" fill="white"/>
</g>
<path d="M91.96 78.541C91.96 85.5723 90.4788 90.8213 87.5166 94.2881C84.5544 97.7549 80.0703 99.4883 74.0645 99.4883C71.9486 99.4883 70.3454 99.3743 69.2549 99.1465V93.0918C70.6221 93.4336 72.0544 93.6045 73.5518 93.6045C76.0745 93.6045 78.1497 93.2383 79.7773 92.5059C81.4049 91.7572 82.6501 90.5934 83.5127 89.0146C84.3753 87.4196 84.8717 85.2305 85.002 82.4473H84.709C83.765 83.9772 82.6745 85.0514 81.4375 85.6699C80.2005 86.2884 78.6543 86.5977 76.7988 86.5977C73.6901 86.5977 71.2406 85.6048 69.4502 83.6191C67.6598 81.6172 66.7646 78.8421 66.7646 75.2939C66.7646 71.4691 67.847 68.4499 70.0117 66.2363C72.1927 64.0065 75.1549 62.8916 78.8984 62.8916C81.5352 62.8916 83.8382 63.5101 85.8076 64.7471C87.7933 65.984 89.3151 67.7826 90.373 70.1426C91.431 72.4863 91.96 75.2858 91.96 78.541ZM79.0449 68.9463C77.4824 68.9463 76.2617 69.4834 75.3828 70.5576C74.5039 71.6318 74.0645 73.1781 74.0645 75.1963C74.0645 76.9215 74.4632 78.2887 75.2607 79.2979C76.0583 80.307 77.2708 80.8115 78.8984 80.8115C80.4284 80.8115 81.7386 80.3151 82.8291 79.3223C83.9196 78.3132 84.4648 77.1576 84.4648 75.8555C84.4648 73.9186 83.9521 72.2829 82.9268 70.9482C81.9176 69.6136 80.6237 68.9463 79.0449 68.9463ZM108.024 62.8428C111.442 62.8428 114.193 63.624 116.276 65.1865C118.376 66.7327 119.426 68.8242 119.426 71.4609C119.426 73.2839 118.921 74.9115 117.912 76.3438C116.903 77.7598 115.275 79.0293 113.029 80.1523C115.699 81.5846 117.611 83.082 118.767 84.6445C119.938 86.1908 120.524 87.8916 120.524 89.7471C120.524 92.6768 119.377 95.0368 117.082 96.8271C114.787 98.6012 111.768 99.4883 108.024 99.4883C104.118 99.4883 101.05 98.6582 98.8203 96.998C96.5905 95.3379 95.4756 92.986 95.4756 89.9424C95.4756 87.9079 96.0127 86.1012 97.0869 84.5225C98.1774 82.9437 99.9189 81.5521 102.312 80.3477C100.277 79.0618 98.8122 77.6865 97.917 76.2217C97.0218 74.7568 96.5742 73.1536 96.5742 71.4121C96.5742 68.8568 97.6322 66.7897 99.748 65.2109C101.864 63.6322 104.623 62.8428 108.024 62.8428ZM102.458 89.5029C102.458 90.9027 102.946 91.9932 103.923 92.7744C104.899 93.5557 106.234 93.9463 107.927 93.9463C109.799 93.9463 111.198 93.5475 112.126 92.75C113.054 91.9362 113.518 90.8701 113.518 89.5518C113.518 88.4613 113.054 87.444 112.126 86.5C111.215 85.5397 109.725 84.5225 107.658 83.4482C104.191 85.0433 102.458 87.0615 102.458 89.5029ZM107.976 68.3604C106.69 68.3604 105.648 68.694 104.851 69.3613C104.069 70.0124 103.679 70.8913 103.679 71.998C103.679 72.9746 103.988 73.8535 104.606 74.6348C105.241 75.3997 106.381 76.1891 108.024 77.0029C109.619 76.2542 110.734 75.4893 111.369 74.708C112.004 73.9268 112.321 73.0234 112.321 71.998C112.321 70.875 111.914 69.988 111.101 69.3369C110.287 68.6859 109.245 68.3604 107.976 68.3604ZM149.04 81.1533C149.04 87.387 148.015 92.0013 145.964 94.9961C143.929 97.9909 140.788 99.4883 136.54 99.4883C132.422 99.4883 129.313 97.9421 127.214 94.8496C125.131 91.7572 124.089 87.1917 124.089 81.1533C124.089 74.8545 125.106 70.2158 127.141 67.2373C129.175 64.2425 132.308 62.7451 136.54 62.7451C140.658 62.7451 143.767 64.3076 145.866 67.4326C147.982 70.5576 149.04 75.1312 149.04 81.1533ZM131.584 81.1533C131.584 85.5316 131.958 88.6729 132.707 90.5771C133.472 92.4652 134.75 93.4092 136.54 93.4092C138.298 93.4092 139.567 92.4489 140.349 90.5283C141.13 88.6077 141.521 85.4827 141.521 81.1533C141.521 76.7751 141.122 73.6338 140.324 71.7295C139.543 69.8089 138.282 68.8486 136.54 68.8486C134.766 68.8486 133.496 69.8089 132.731 71.7295C131.966 73.6338 131.584 76.7751 131.584 81.1533Z" fill="#212121"/>
<path d="M87.583 120.035C87.583 121.377 87.1436 122.405 86.2646 123.12C85.3857 123.835 84.1348 124.192 82.5117 124.192H81.1758V129H79.0752V116.15H82.7754C84.3809 116.15 85.582 116.479 86.3789 117.135C87.1816 117.791 87.583 118.758 87.583 120.035ZM81.1758 122.426H82.292C83.3701 122.426 84.1611 122.238 84.665 121.863C85.1689 121.488 85.4209 120.902 85.4209 120.105C85.4209 119.367 85.1953 118.816 84.7441 118.453C84.293 118.09 83.5898 117.908 82.6348 117.908H81.1758V122.426ZM94.8604 119.104C95.2764 119.104 95.6191 119.133 95.8887 119.191L95.6865 121.116C95.3936 121.046 95.0889 121.011 94.7725 121.011C93.9463 121.011 93.2754 121.28 92.7598 121.819C92.25 122.358 91.9951 123.059 91.9951 123.92V129H89.9297V119.279H91.5469L91.8193 120.993H91.9248C92.2471 120.413 92.666 119.953 93.1816 119.613C93.7031 119.273 94.2627 119.104 94.8604 119.104ZM106.321 124.122C106.321 125.71 105.914 126.949 105.1 127.84C104.285 128.73 103.151 129.176 101.698 129.176C100.79 129.176 99.9873 128.971 99.29 128.561C98.5928 128.15 98.0566 127.562 97.6816 126.794C97.3066 126.026 97.1191 125.136 97.1191 124.122C97.1191 122.546 97.5234 121.315 98.332 120.431C99.1406 119.546 100.28 119.104 101.751 119.104C103.157 119.104 104.271 119.558 105.091 120.466C105.911 121.368 106.321 122.587 106.321 124.122ZM99.2461 124.122C99.2461 126.366 100.075 127.488 101.733 127.488C103.374 127.488 104.194 126.366 104.194 124.122C104.194 121.901 103.368 120.791 101.716 120.791C100.849 120.791 100.219 121.078 99.8262 121.652C99.4395 122.227 99.2461 123.05 99.2461 124.122ZM107.71 133.324C107.089 133.324 106.573 133.251 106.163 133.104V131.47C106.562 131.575 106.969 131.628 107.385 131.628C108.264 131.628 108.703 131.13 108.703 130.134V119.279H110.769V130.274C110.769 131.276 110.505 132.035 109.978 132.551C109.456 133.066 108.7 133.324 107.71 133.324ZM108.58 116.704C108.58 116.335 108.68 116.051 108.879 115.852C109.084 115.652 109.374 115.553 109.749 115.553C110.112 115.553 110.394 115.652 110.593 115.852C110.798 116.051 110.9 116.335 110.9 116.704C110.9 117.056 110.798 117.334 110.593 117.539C110.394 117.738 110.112 117.838 109.749 117.838C109.374 117.838 109.084 117.738 108.879 117.539C108.68 117.334 108.58 117.056 108.58 116.704ZM117.976 129.176C116.464 129.176 115.28 128.736 114.425 127.857C113.575 126.973 113.15 125.757 113.15 124.21C113.15 122.622 113.546 121.374 114.337 120.466C115.128 119.558 116.215 119.104 117.598 119.104C118.881 119.104 119.895 119.493 120.639 120.272C121.383 121.052 121.755 122.124 121.755 123.489V124.605H115.277C115.307 125.549 115.562 126.275 116.042 126.785C116.522 127.289 117.199 127.541 118.072 127.541C118.646 127.541 119.18 127.488 119.672 127.383C120.17 127.271 120.703 127.09 121.271 126.838V128.517C120.768 128.757 120.258 128.927 119.742 129.026C119.227 129.126 118.638 129.176 117.976 129.176ZM117.598 120.668C116.941 120.668 116.414 120.876 116.016 121.292C115.623 121.708 115.389 122.314 115.312 123.111H119.725C119.713 122.309 119.52 121.702 119.145 121.292C118.77 120.876 118.254 120.668 117.598 120.668ZM128.021 129.176C126.551 129.176 125.432 128.748 124.664 127.893C123.902 127.031 123.521 125.798 123.521 124.192C123.521 122.558 123.92 121.301 124.717 120.422C125.52 119.543 126.677 119.104 128.188 119.104C129.214 119.104 130.137 119.294 130.957 119.675L130.333 121.336C129.46 120.996 128.739 120.826 128.171 120.826C126.489 120.826 125.648 121.942 125.648 124.175C125.648 125.265 125.856 126.085 126.272 126.636C126.694 127.181 127.31 127.453 128.118 127.453C129.038 127.453 129.908 127.225 130.729 126.768V128.569C130.359 128.786 129.964 128.941 129.542 129.035C129.126 129.129 128.619 129.176 128.021 129.176ZM136.635 127.506C137.139 127.506 137.643 127.427 138.146 127.269V128.824C137.918 128.924 137.622 129.006 137.259 129.07C136.901 129.141 136.529 129.176 136.143 129.176C134.186 129.176 133.207 128.145 133.207 126.082V120.844H131.88V119.93L133.304 119.174L134.007 117.117H135.281V119.279H138.05V120.844H135.281V126.047C135.281 126.545 135.404 126.914 135.65 127.154C135.902 127.389 136.23 127.506 136.635 127.506Z" fill="#646464"/>
<g filter="url(#filter1_d_0_61)">
<path d="M438 139C438 116.909 455.909 99 478 99H623V241C623 263.091 605.091 281 583 281H438V139Z" fill="white"/>
</g>
<path d="M503.15 171.197C506.601 171.197 509.343 172.166 511.378 174.103C513.428 176.039 514.454 178.692 514.454 182.062C514.454 186.049 513.225 189.117 510.767 191.266C508.31 193.414 504.794 194.488 500.22 194.488C496.249 194.488 493.043 193.845 490.601 192.56V186.041C491.887 186.725 493.384 187.286 495.093 187.726C496.802 188.149 498.422 188.36 499.952 188.36C504.558 188.36 506.861 186.472 506.861 182.696C506.861 179.099 504.477 177.301 499.708 177.301C498.845 177.301 497.893 177.39 496.851 177.569C495.81 177.732 494.963 177.911 494.312 178.106L491.309 176.495L492.652 158.307H512.012V164.703H499.268L498.609 171.71L499.464 171.539C500.456 171.311 501.685 171.197 503.15 171.197ZM543.677 194H518.726V188.751L527.686 179.693C530.339 176.975 532.073 175.095 532.886 174.054C533.7 172.996 534.286 172.019 534.644 171.124C535.002 170.229 535.181 169.301 535.181 168.341C535.181 166.909 534.783 165.842 533.985 165.143C533.204 164.443 532.154 164.093 530.836 164.093C529.452 164.093 528.109 164.41 526.807 165.045C525.505 165.68 524.146 166.583 522.73 167.755L518.629 162.896C520.386 161.399 521.843 160.341 522.999 159.723C524.154 159.104 525.416 158.632 526.783 158.307C528.15 157.965 529.68 157.794 531.373 157.794C533.602 157.794 535.572 158.201 537.281 159.015C538.99 159.828 540.316 160.968 541.26 162.433C542.204 163.897 542.676 165.574 542.676 167.462C542.676 169.106 542.383 170.652 541.797 172.101C541.228 173.533 540.333 175.006 539.112 176.52C537.908 178.033 535.775 180.19 532.715 182.989L528.126 187.311V187.652H543.677V194ZM572.047 176.153C572.047 182.387 571.021 187.001 568.97 189.996C566.936 192.991 563.795 194.488 559.547 194.488C555.429 194.488 552.32 192.942 550.22 189.85C548.137 186.757 547.095 182.192 547.095 176.153C547.095 169.854 548.113 165.216 550.147 162.237C552.182 159.243 555.315 157.745 559.547 157.745C563.664 157.745 566.773 159.308 568.873 162.433C570.989 165.558 572.047 170.131 572.047 176.153ZM554.59 176.153C554.59 180.532 554.965 183.673 555.714 185.577C556.478 187.465 557.756 188.409 559.547 188.409C561.304 188.409 562.574 187.449 563.355 185.528C564.136 183.608 564.527 180.483 564.527 176.153C564.527 171.775 564.128 168.634 563.331 166.729C562.549 164.809 561.288 163.849 559.547 163.849C557.772 163.849 556.503 164.809 555.738 166.729C554.973 168.634 554.59 171.775 554.59 176.153Z" fill="#212121"/>
<path d="M487.307 224H485.198V218.208H479.274V224H477.173V211.15H479.274V216.406H485.198V211.15H487.307V224ZM496.553 224L496.14 222.646H496.07C495.601 223.238 495.13 223.643 494.655 223.859C494.18 224.07 493.571 224.176 492.827 224.176C491.872 224.176 491.125 223.918 490.586 223.402C490.052 222.887 489.786 222.157 489.786 221.214C489.786 220.212 490.158 219.456 490.902 218.946C491.646 218.437 492.78 218.158 494.303 218.111L495.982 218.059V217.54C495.982 216.919 495.836 216.456 495.543 216.151C495.255 215.841 494.807 215.686 494.198 215.686C493.7 215.686 493.222 215.759 492.765 215.905C492.308 216.052 491.869 216.225 491.447 216.424L490.779 214.947C491.306 214.672 491.883 214.464 492.51 214.323C493.137 214.177 493.729 214.104 494.286 214.104C495.522 214.104 496.454 214.373 497.081 214.912C497.714 215.451 498.03 216.298 498.03 217.452V224H496.553ZM493.477 222.594C494.227 222.594 494.828 222.386 495.279 221.97C495.736 221.548 495.964 220.959 495.964 220.203V219.359L494.716 219.412C493.744 219.447 493.035 219.611 492.589 219.904C492.15 220.191 491.93 220.634 491.93 221.231C491.93 221.665 492.059 222.002 492.317 222.242C492.575 222.477 492.962 222.594 493.477 222.594ZM505.843 224.176C504.613 224.176 503.658 223.733 502.978 222.849H502.855C502.937 223.669 502.978 224.167 502.978 224.343V228.324H500.913V214.279H502.583C502.63 214.461 502.726 214.895 502.873 215.58H502.978C503.623 214.596 504.589 214.104 505.879 214.104C507.091 214.104 508.035 214.543 508.709 215.422C509.388 216.301 509.728 217.534 509.728 219.122C509.728 220.71 509.382 221.949 508.691 222.84C508.005 223.73 507.056 224.176 505.843 224.176ZM505.342 215.791C504.522 215.791 503.922 216.031 503.541 216.512C503.166 216.992 502.978 217.76 502.978 218.814V219.122C502.978 220.306 503.166 221.164 503.541 221.697C503.916 222.225 504.528 222.488 505.378 222.488C506.092 222.488 506.643 222.195 507.03 221.609C507.417 221.023 507.61 220.188 507.61 219.104C507.61 218.015 507.417 217.191 507.03 216.635C506.649 216.072 506.087 215.791 505.342 215.791ZM517.058 224.176C515.828 224.176 514.873 223.733 514.193 222.849H514.07C514.152 223.669 514.193 224.167 514.193 224.343V228.324H512.128V214.279H513.797C513.844 214.461 513.941 214.895 514.088 215.58H514.193C514.838 214.596 515.804 214.104 517.093 214.104C518.306 214.104 519.25 214.543 519.923 215.422C520.603 216.301 520.943 217.534 520.943 219.122C520.943 220.71 520.597 221.949 519.906 222.84C519.22 223.73 518.271 224.176 517.058 224.176ZM516.557 215.791C515.737 215.791 515.136 216.031 514.755 216.512C514.38 216.992 514.193 217.76 514.193 218.814V219.122C514.193 220.306 514.38 221.164 514.755 221.697C515.13 222.225 515.743 222.488 516.592 222.488C517.307 222.488 517.858 222.195 518.245 221.609C518.631 221.023 518.825 220.188 518.825 219.104C518.825 218.015 518.631 217.191 518.245 216.635C517.864 216.072 517.301 215.791 516.557 215.791ZM521.866 214.279H524.116L526.093 219.79C526.392 220.575 526.591 221.313 526.691 222.005H526.761C526.814 221.683 526.911 221.293 527.051 220.836C527.192 220.373 527.936 218.188 529.284 214.279H531.516L527.359 225.292C526.603 227.313 525.343 228.324 523.58 228.324C523.123 228.324 522.677 228.274 522.244 228.175V226.54C522.554 226.61 522.909 226.646 523.307 226.646C524.303 226.646 525.004 226.068 525.408 224.914L525.768 224L521.866 214.279ZM543.355 212.768C542.148 212.768 541.199 213.195 540.507 214.051C539.816 214.906 539.47 216.087 539.47 217.593C539.47 219.169 539.801 220.361 540.464 221.17C541.131 221.979 542.095 222.383 543.355 222.383C543.9 222.383 544.427 222.33 544.937 222.225C545.447 222.113 545.977 221.973 546.528 221.803V223.604C545.52 223.985 544.378 224.176 543.1 224.176C541.219 224.176 539.775 223.607 538.767 222.471C537.759 221.328 537.255 219.696 537.255 217.575C537.255 216.239 537.499 215.07 537.985 214.068C538.477 213.066 539.186 212.299 540.112 211.766C541.038 211.232 542.125 210.966 543.373 210.966C544.685 210.966 545.898 211.241 547.011 211.792L546.255 213.541C545.822 213.336 545.362 213.157 544.876 213.005C544.395 212.847 543.888 212.768 543.355 212.768ZM551.142 224H549.077V210.324H551.142V224ZM556.17 224H554.104V214.279H556.17V224ZM553.981 211.704C553.981 211.335 554.081 211.051 554.28 210.852C554.485 210.652 554.775 210.553 555.15 210.553C555.513 210.553 555.795 210.652 555.994 210.852C556.199 211.051 556.301 211.335 556.301 211.704C556.301 212.056 556.199 212.334 555.994 212.539C555.795 212.738 555.513 212.838 555.15 212.838C554.775 212.838 554.485 212.738 554.28 212.539C554.081 212.334 553.981 212.056 553.981 211.704ZM563.377 224.176C561.865 224.176 560.681 223.736 559.826 222.857C558.976 221.973 558.551 220.757 558.551 219.21C558.551 217.622 558.947 216.374 559.738 215.466C560.529 214.558 561.616 214.104 562.999 214.104C564.282 214.104 565.296 214.493 566.04 215.272C566.784 216.052 567.156 217.124 567.156 218.489V219.605H560.678C560.708 220.549 560.963 221.275 561.443 221.785C561.923 222.289 562.6 222.541 563.473 222.541C564.047 222.541 564.581 222.488 565.073 222.383C565.571 222.271 566.104 222.09 566.672 221.838V223.517C566.169 223.757 565.659 223.927 565.143 224.026C564.628 224.126 564.039 224.176 563.377 224.176ZM562.999 215.668C562.342 215.668 561.815 215.876 561.417 216.292C561.024 216.708 560.79 217.314 560.714 218.111H565.126C565.114 217.309 564.921 216.702 564.546 216.292C564.171 215.876 563.655 215.668 562.999 215.668ZM578.054 224H575.98V218.023C575.98 217.273 575.828 216.714 575.523 216.345C575.224 215.976 574.747 215.791 574.09 215.791C573.217 215.791 572.579 216.049 572.174 216.564C571.77 217.08 571.568 217.944 571.568 219.157V224H569.503V214.279H571.12L571.41 215.554H571.515C571.808 215.091 572.224 214.733 572.763 214.481C573.302 214.229 573.9 214.104 574.556 214.104C576.888 214.104 578.054 215.29 578.054 217.663V224ZM584.549 222.506C585.053 222.506 585.557 222.427 586.061 222.269V223.824C585.833 223.924 585.537 224.006 585.173 224.07C584.816 224.141 584.444 224.176 584.057 224.176C582.1 224.176 581.122 223.145 581.122 221.082V215.844H579.795V214.93L581.218 214.174L581.922 212.117H583.196V214.279H585.964V215.844H583.196V221.047C583.196 221.545 583.319 221.914 583.565 222.154C583.817 222.389 584.145 222.506 584.549 222.506Z" fill="#646464"/>
<g filter="url(#filter2_d_0_61)">
<path d="M824 43C824 20.9086 841.909 3 864 3H1009V145C1009 167.091 991.091 185 969 185H824V43Z" fill="white"/>
</g>
<path d="M899.721 71.29C899.721 73.5199 899.046 75.416 897.695 76.9785C896.344 78.541 894.448 79.6152 892.006 80.2012V80.3477C894.887 80.7057 897.068 81.5846 898.549 82.9844C900.031 84.3678 900.771 86.2396 900.771 88.5996C900.771 92.0339 899.526 94.7113 897.036 96.6318C894.546 98.5361 890.989 99.4883 886.367 99.4883C882.493 99.4883 879.059 98.8454 876.064 97.5596V91.1387C877.448 91.8385 878.969 92.4082 880.63 92.8477C882.29 93.2871 883.934 93.5068 885.561 93.5068C888.051 93.5068 889.891 93.0837 891.079 92.2373C892.267 91.391 892.861 90.0319 892.861 88.1602C892.861 86.4837 892.177 85.2956 890.81 84.5957C889.443 83.8958 887.262 83.5459 884.267 83.5459H881.557V77.7598H884.316C887.083 77.7598 889.101 77.4017 890.371 76.6855C891.657 75.9531 892.299 74.708 892.299 72.9502C892.299 70.2484 890.607 68.8975 887.221 68.8975C886.049 68.8975 884.853 69.0928 883.632 69.4834C882.428 69.874 881.085 70.5495 879.604 71.5098L876.113 66.3096C879.368 63.9658 883.25 62.7939 887.758 62.7939C891.453 62.7939 894.366 63.5426 896.499 65.04C898.647 66.5374 899.721 68.6208 899.721 71.29ZM928.286 71.29C928.286 73.5199 927.61 75.416 926.259 76.9785C924.908 78.541 923.012 79.6152 920.571 80.2012V80.3477C923.452 80.7057 925.633 81.5846 927.114 82.9844C928.595 84.3678 929.336 86.2396 929.336 88.5996C929.336 92.0339 928.09 94.7113 925.6 96.6318C923.11 98.5361 919.554 99.4883 914.931 99.4883C911.058 99.4883 907.623 98.8454 904.629 97.5596V91.1387C906.012 91.8385 907.534 92.4082 909.194 92.8477C910.854 93.2871 912.498 93.5068 914.126 93.5068C916.616 93.5068 918.455 93.0837 919.643 92.2373C920.831 91.391 921.425 90.0319 921.425 88.1602C921.425 86.4837 920.742 85.2956 919.375 84.5957C918.007 83.8958 915.826 83.5459 912.832 83.5459H910.122V77.7598H912.88C915.647 77.7598 917.666 77.4017 918.935 76.6855C920.221 75.9531 920.864 74.708 920.864 72.9502C920.864 70.2484 919.171 68.8975 915.786 68.8975C914.614 68.8975 913.418 69.0928 912.197 69.4834C910.992 69.874 909.65 70.5495 908.169 71.5098L904.677 66.3096C907.933 63.9658 911.814 62.7939 916.323 62.7939C920.018 62.7939 922.931 63.5426 925.063 65.04C927.212 66.5374 928.286 68.6208 928.286 71.29ZM958.047 81.1533C958.047 87.387 957.021 92.0013 954.97 94.9961C952.936 97.9909 949.795 99.4883 945.547 99.4883C941.429 99.4883 938.32 97.9421 936.22 94.8496C934.137 91.7572 933.095 87.1917 933.095 81.1533C933.095 74.8545 934.113 70.2158 936.147 67.2373C938.182 64.2425 941.315 62.7451 945.547 62.7451C949.664 62.7451 952.773 64.3076 954.873 67.4326C956.989 70.5576 958.047 75.1312 958.047 81.1533ZM940.59 81.1533C940.59 85.5316 940.965 88.6729 941.714 90.5771C942.478 92.4652 943.756 93.4092 945.547 93.4092C947.304 93.4092 948.574 92.4489 949.355 90.5283C950.136 88.6077 950.527 85.4827 950.527 81.1533C950.527 76.7751 950.128 73.6338 949.331 71.7295C948.549 69.8089 947.288 68.8486 945.547 68.8486C943.772 68.8486 942.503 69.8089 941.738 71.7295C940.973 73.6338 940.59 76.7751 940.59 81.1533Z" fill="#212121"/>
<path d="M894.647 129H892.362L890.182 121.336C890.089 121.002 889.971 120.521 889.831 119.895C889.69 119.262 889.605 118.822 889.576 118.576C889.517 118.951 889.421 119.438 889.286 120.035C889.157 120.633 889.048 121.078 888.961 121.371L886.834 129H884.548L882.887 122.566L881.2 116.15H883.344L885.181 123.639C885.468 124.84 885.673 125.9 885.797 126.82C885.861 126.322 885.958 125.766 886.087 125.15C886.215 124.535 886.333 124.037 886.438 123.656L888.53 116.15H890.613L892.757 123.691C892.963 124.389 893.179 125.432 893.408 126.82C893.496 125.982 893.707 124.916 894.041 123.621L895.869 116.15H897.996L894.647 129ZM901.67 129H899.604V119.279H901.67V129ZM899.481 116.704C899.481 116.335 899.581 116.051 899.78 115.852C899.985 115.652 900.275 115.553 900.65 115.553C901.013 115.553 901.295 115.652 901.494 115.852C901.699 116.051 901.801 116.335 901.801 116.704C901.801 117.056 901.699 117.334 901.494 117.539C901.295 117.738 901.013 117.838 900.65 117.838C900.275 117.838 899.985 117.738 899.78 117.539C899.581 117.334 899.481 117.056 899.481 116.704ZM913.183 129H911.109V123.023C911.109 122.273 910.957 121.714 910.652 121.345C910.353 120.976 909.876 120.791 909.219 120.791C908.346 120.791 907.708 121.049 907.303 121.564C906.899 122.08 906.697 122.944 906.697 124.157V129H904.631V119.279H906.249L906.539 120.554H906.644C906.937 120.091 907.353 119.733 907.892 119.481C908.431 119.229 909.029 119.104 909.685 119.104C912.017 119.104 913.183 120.29 913.183 122.663V129ZM924.609 129H922.535V123.023C922.535 122.273 922.382 121.714 922.078 121.345C921.779 120.976 921.301 120.791 920.645 120.791C919.772 120.791 919.133 121.049 918.729 121.564C918.325 122.08 918.123 122.944 918.123 124.157V129H916.057V119.279H917.674L917.964 120.554H918.07C918.363 120.091 918.779 119.733 919.318 119.481C919.857 119.229 920.455 119.104 921.111 119.104C923.443 119.104 924.609 120.29 924.609 122.663V129ZM931.728 129.176C930.216 129.176 929.033 128.736 928.177 127.857C927.328 126.973 926.903 125.757 926.903 124.21C926.903 122.622 927.298 121.374 928.089 120.466C928.88 119.558 929.967 119.104 931.35 119.104C932.633 119.104 933.647 119.493 934.391 120.272C935.135 121.052 935.507 122.124 935.507 123.489V124.605H929.03C929.059 125.549 929.314 126.275 929.795 126.785C930.275 127.289 930.952 127.541 931.825 127.541C932.399 127.541 932.932 127.488 933.424 127.383C933.922 127.271 934.456 127.09 935.024 126.838V128.517C934.52 128.757 934.01 128.927 933.495 129.026C932.979 129.126 932.39 129.176 931.728 129.176ZM931.35 120.668C930.694 120.668 930.167 120.876 929.768 121.292C929.376 121.708 929.141 122.314 929.065 123.111H933.477C933.465 122.309 933.272 121.702 932.897 121.292C932.522 120.876 932.006 120.668 931.35 120.668ZM942.785 119.104C943.201 119.104 943.544 119.133 943.813 119.191L943.611 121.116C943.318 121.046 943.013 121.011 942.697 121.011C941.871 121.011 941.2 121.28 940.684 121.819C940.174 122.358 939.92 123.059 939.92 123.92V129H937.854V119.279H939.471L939.744 120.993H939.849C940.172 120.413 940.59 119.953 941.106 119.613C941.628 119.273 942.187 119.104 942.785 119.104ZM952.154 126.231C952.154 127.181 951.808 127.91 951.117 128.42C950.425 128.924 949.435 129.176 948.146 129.176C946.851 129.176 945.811 128.979 945.026 128.587V126.803C946.169 127.33 947.232 127.594 948.216 127.594C949.488 127.594 950.124 127.21 950.124 126.442C950.124 126.196 950.053 125.991 949.913 125.827C949.772 125.663 949.541 125.493 949.218 125.317C948.896 125.142 948.448 124.942 947.874 124.72C946.755 124.286 945.996 123.853 945.597 123.419C945.205 122.985 945.008 122.423 945.008 121.731C945.008 120.899 945.342 120.255 946.01 119.798C946.684 119.335 947.598 119.104 948.753 119.104C949.895 119.104 950.976 119.335 951.996 119.798L951.328 121.354C950.279 120.92 949.397 120.703 948.682 120.703C947.592 120.703 947.047 121.014 947.047 121.635C947.047 121.939 947.188 122.197 947.469 122.408C947.756 122.619 948.378 122.909 949.333 123.278C950.135 123.589 950.718 123.873 951.082 124.131C951.445 124.389 951.714 124.688 951.89 125.027C952.066 125.361 952.154 125.763 952.154 126.231Z" fill="#646464"/>
<g filter="url(#filter3_d_0_61)">
<path d="M1174 139C1174 116.909 1191.91 99 1214 99H1359V241C1359 263.091 1341.09 281 1319 281H1174V139Z" fill="white"/>
</g>
<path d="M1243.81 194H1236.27V173.346L1236.34 169.952L1236.47 166.241C1235.21 167.494 1234.34 168.316 1233.85 168.707L1229.75 172.003L1226.11 167.462L1237.61 158.307H1243.81V194ZM1278.68 194H1253.73V188.751L1262.69 179.693C1265.34 176.975 1267.07 175.095 1267.89 174.054C1268.7 172.996 1269.29 172.019 1269.64 171.124C1270 170.229 1270.18 169.301 1270.18 168.341C1270.18 166.909 1269.78 165.842 1268.98 165.143C1268.2 164.443 1267.15 164.093 1265.84 164.093C1264.45 164.093 1263.11 164.41 1261.81 165.045C1260.51 165.68 1259.15 166.583 1257.73 167.755L1253.63 162.896C1255.39 161.399 1256.84 160.341 1258 159.723C1259.15 159.104 1260.42 158.632 1261.78 158.307C1263.15 157.965 1264.68 157.794 1266.37 157.794C1268.6 157.794 1270.57 158.201 1272.28 159.015C1273.99 159.828 1275.32 160.968 1276.26 162.433C1277.2 163.897 1277.68 165.574 1277.68 167.462C1277.68 169.106 1277.38 170.652 1276.8 172.101C1276.23 173.533 1275.33 175.006 1274.11 176.52C1272.91 178.033 1270.78 180.19 1267.72 182.989L1263.13 187.311V187.652H1278.68V194ZM1307.05 176.153C1307.05 182.387 1306.02 187.001 1303.97 189.996C1301.94 192.991 1298.79 194.488 1294.55 194.488C1290.43 194.488 1287.32 192.942 1285.22 189.85C1283.14 186.757 1282.1 182.192 1282.1 176.153C1282.1 169.854 1283.11 165.216 1285.15 162.237C1287.18 159.243 1290.31 157.745 1294.55 157.745C1298.66 157.745 1301.77 159.308 1303.87 162.433C1305.99 165.558 1307.05 170.131 1307.05 176.153ZM1289.59 176.153C1289.59 180.532 1289.96 183.673 1290.71 185.577C1291.48 187.465 1292.76 188.409 1294.55 188.409C1296.3 188.409 1297.57 187.449 1298.36 185.528C1299.14 183.608 1299.53 180.483 1299.53 176.153C1299.53 171.775 1299.13 168.634 1298.33 166.729C1297.55 164.809 1296.29 163.849 1294.55 163.849C1292.77 163.849 1291.5 164.809 1290.74 166.729C1289.97 168.634 1289.59 171.775 1289.59 176.153Z" fill="#212121"/>
<path d="M1225.86 217.127H1227.32C1228.3 217.127 1229 216.945 1229.44 216.582C1229.88 216.219 1230.1 215.68 1230.1 214.965C1230.1 214.238 1229.87 213.717 1229.39 213.4C1228.92 213.084 1228.2 212.926 1227.25 212.926H1225.86V217.127ZM1225.86 218.867V224H1223.76V211.15H1227.39C1229.05 211.15 1230.27 211.461 1231.07 212.082C1231.87 212.703 1232.27 213.641 1232.27 214.895C1232.27 216.494 1231.43 217.634 1229.77 218.313L1233.4 224H1231.01L1227.93 218.867H1225.86ZM1239.3 224.176C1237.78 224.176 1236.6 223.736 1235.75 222.857C1234.9 221.973 1234.47 220.757 1234.47 219.21C1234.47 217.622 1234.87 216.374 1235.66 215.466C1236.45 214.558 1237.54 214.104 1238.92 214.104C1240.2 214.104 1241.22 214.493 1241.96 215.272C1242.7 216.052 1243.08 217.124 1243.08 218.489V219.605H1236.6C1236.63 220.549 1236.88 221.275 1237.36 221.785C1237.84 222.289 1238.52 222.541 1239.39 222.541C1239.97 222.541 1240.5 222.488 1240.99 222.383C1241.49 222.271 1242.02 222.09 1242.59 221.838V223.517C1242.09 223.757 1241.58 223.927 1241.06 224.026C1240.55 224.126 1239.96 224.176 1239.3 224.176ZM1238.92 215.668C1238.26 215.668 1237.73 215.876 1237.34 216.292C1236.94 216.708 1236.71 217.314 1236.63 218.111H1241.05C1241.03 217.309 1240.84 216.702 1240.47 216.292C1240.09 215.876 1239.57 215.668 1238.92 215.668ZM1249.34 224.176C1247.87 224.176 1246.75 223.748 1245.98 222.893C1245.22 222.031 1244.84 220.798 1244.84 219.192C1244.84 217.558 1245.24 216.301 1246.04 215.422C1246.84 214.543 1248 214.104 1249.51 214.104C1250.53 214.104 1251.46 214.294 1252.28 214.675L1251.65 216.336C1250.78 215.996 1250.06 215.826 1249.49 215.826C1247.81 215.826 1246.97 216.942 1246.97 219.175C1246.97 220.265 1247.18 221.085 1247.59 221.636C1248.02 222.181 1248.63 222.453 1249.44 222.453C1250.36 222.453 1251.23 222.225 1252.05 221.768V223.569C1251.68 223.786 1251.28 223.941 1250.86 224.035C1250.45 224.129 1249.94 224.176 1249.34 224.176ZM1262.96 219.122C1262.96 220.71 1262.55 221.949 1261.73 222.84C1260.92 223.73 1259.79 224.176 1258.33 224.176C1257.43 224.176 1256.62 223.971 1255.93 223.561C1255.23 223.15 1254.69 222.562 1254.32 221.794C1253.94 221.026 1253.75 220.136 1253.75 219.122C1253.75 217.546 1254.16 216.315 1254.97 215.431C1255.78 214.546 1256.92 214.104 1258.39 214.104C1259.79 214.104 1260.91 214.558 1261.73 215.466C1262.55 216.368 1262.96 217.587 1262.96 219.122ZM1255.88 219.122C1255.88 221.366 1256.71 222.488 1258.37 222.488C1260.01 222.488 1260.83 221.366 1260.83 219.122C1260.83 216.901 1260 215.791 1258.35 215.791C1257.48 215.791 1256.85 216.078 1256.46 216.652C1256.07 217.227 1255.88 218.05 1255.88 219.122ZM1273.53 224H1271.46V218.006C1271.46 217.262 1271.32 216.708 1271.03 216.345C1270.75 215.976 1270.31 215.791 1269.72 215.791C1268.92 215.791 1268.33 216.052 1267.96 216.573C1267.59 217.089 1267.4 217.95 1267.4 219.157V224H1265.34V214.279H1266.96L1267.25 215.554H1267.35C1267.62 215.091 1268.01 214.733 1268.52 214.481C1269.04 214.229 1269.6 214.104 1270.22 214.104C1271.71 214.104 1272.7 214.613 1273.19 215.633H1273.33C1273.61 215.152 1274.02 214.777 1274.54 214.508C1275.06 214.238 1275.66 214.104 1276.33 214.104C1277.49 214.104 1278.34 214.396 1278.86 214.982C1279.4 215.568 1279.66 216.462 1279.66 217.663V224H1277.6V218.006C1277.6 217.262 1277.46 216.708 1277.17 216.345C1276.89 215.976 1276.45 215.791 1275.85 215.791C1275.05 215.791 1274.46 216.043 1274.08 216.547C1273.71 217.045 1273.53 217.812 1273.53 218.85V224ZM1286.79 224.176C1285.28 224.176 1284.1 223.736 1283.24 222.857C1282.39 221.973 1281.97 220.757 1281.97 219.21C1281.97 217.622 1282.36 216.374 1283.15 215.466C1283.94 214.558 1285.03 214.104 1286.41 214.104C1287.7 214.104 1288.71 214.493 1289.46 215.272C1290.2 216.052 1290.57 217.124 1290.57 218.489V219.605H1284.09C1284.12 220.549 1284.38 221.275 1284.86 221.785C1285.34 222.289 1286.02 222.541 1286.89 222.541C1287.46 222.541 1288 222.488 1288.49 222.383C1288.99 222.271 1289.52 222.09 1290.09 221.838V223.517C1289.58 223.757 1289.07 223.927 1288.56 224.026C1288.04 224.126 1287.45 224.176 1286.79 224.176ZM1286.41 215.668C1285.76 215.668 1285.23 215.876 1284.83 216.292C1284.44 216.708 1284.21 217.314 1284.13 218.111H1288.54C1288.53 217.309 1288.34 216.702 1287.96 216.292C1287.59 215.876 1287.07 215.668 1286.41 215.668ZM1301.47 224H1299.4V218.023C1299.4 217.273 1299.24 216.714 1298.94 216.345C1298.64 215.976 1298.16 215.791 1297.51 215.791C1296.63 215.791 1295.99 216.049 1295.59 216.564C1295.19 217.08 1294.98 217.944 1294.98 219.157V224H1292.92V214.279H1294.54L1294.83 215.554H1294.93C1295.22 215.091 1295.64 214.733 1296.18 214.481C1296.72 214.229 1297.32 214.104 1297.97 214.104C1300.3 214.104 1301.47 215.29 1301.47 217.663V224ZM1307.97 222.506C1308.47 222.506 1308.97 222.427 1309.48 222.269V223.824C1309.25 223.924 1308.95 224.006 1308.59 224.07C1308.23 224.141 1307.86 224.176 1307.47 224.176C1305.52 224.176 1304.54 223.145 1304.54 221.082V215.844H1303.21V214.93L1304.63 214.174L1305.34 212.117H1306.61V214.279H1309.38V215.844H1306.61V221.047C1306.61 221.545 1306.73 221.914 1306.98 222.154C1307.23 222.389 1307.56 222.506 1307.97 222.506Z" fill="#646464"/>
<defs>
<filter id="filter0_d_0_61" x="0" y="0" width="217" height="214" filterUnits="userSpaceOnUse" color-interpolation-filters="sRGB">
<feFlood flood-opacity="0" result="BackgroundImageFix"/>
<feColorMatrix in="SourceAlpha" type="matrix" values="0 0 0 0 0 0 0 0 0 0 0 0 0 0 0 0 0 0 127 0" result="hardAlpha"/>
<feOffset dy="13"/>
<feGaussianBlur stdDeviation="8"/>
<feColorMatrix type="matrix" values="0 0 0 0 0 0 0 0 0 0 0 0 0 0 0 0 0 0 0.1 0"/>
<feBlend mode="normal" in2="BackgroundImageFix" result="effect1_dropShadow_0_61"/>
<feBlend mode="normal" in="SourceGraphic" in2="effect1_dropShadow_0_61" result="shape"/>
</filter>
<filter id="filter1_d_0_61" x="422" y="96" width="217" height="214" filterUnits="userSpaceOnUse" color-interpolation-filters="sRGB">
<feFlood flood-opacity="0" result="BackgroundImageFix"/>
<feColorMatrix in="SourceAlpha" type="matrix" values="0 0 0 0 0 0 0 0 0 0 0 0 0 0 0 0 0 0 127 0" result="hardAlpha"/>
<feOffset dy="13"/>
<feGaussianBlur stdDeviation="8"/>
<feColorMatrix type="matrix" values="0 0 0 0 0 0 0 0 0 0 0 0 0 0 0 0 0 0 0.1 0"/>
<feBlend mode="normal" in2="BackgroundImageFix" result="effect1_dropShadow_0_61"/>
<feBlend mode="normal" in="SourceGraphic" in2="effect1_dropShadow_0_61" result="shape"/>
</filter>
<filter id="filter2_d_0_61" x="808" y="0" width="217" height="214" filterUnits="userSpaceOnUse" color-interpolation-filters="sRGB">
<feFlood flood-opacity="0" result="BackgroundImageFix"/>
<feColorMatrix in="SourceAlpha" type="matrix" values="0 0 0 0 0 0 0 0 0 0 0 0 0 0 0 0 0 0 127 0" result="hardAlpha"/>
<feOffset dy="13"/>
<feGaussianBlur stdDeviation="8"/>
<feColorMatrix type="matrix" values="0 0 0 0 0 0 0 0 0 0 0 0 0 0 0 0 0 0 0.1 0"/>
<feBlend mode="normal" in2="BackgroundImageFix" result="effect1_dropShadow_0_61"/>
<feBlend mode="normal" in="SourceGraphic" in2="effect1_dropShadow_0_61" result="shape"/>
</filter>
<filter id="filter3_d_0_61" x="1158" y="96" width="217" height="214" filterUnits="userSpaceOnUse" color-interpolation-filters="sRGB">
<feFlood flood-opacity="0" result="BackgroundImageFix"/>
<feColorMatrix in="SourceAlpha" type="matrix" values="0 0 0 0 0 0 0 0 0 0 0 0 0 0 0 0 0 0 127 0" result="hardAlpha"/>
<feOffset dy="13"/>
<feGaussianBlur stdDeviation="8"/>
<feColorMatrix type="matrix" values="0 0 0 0 0 0 0 0 0 0 0 0 0 0 0 0 0 0 0.1 0"/>
<feBlend mode="normal" in2="BackgroundImageFix" result="effect1_dropShadow_0_61"/>
<feBlend mode="normal" in="SourceGraphic" in2="effect1_dropShadow_0_61" result="shape"/>
</filter>
</defs>
</svg>
