<svg width="33" height="32" viewBox="0 0 33 32" fill="none" xmlns="http://www.w3.org/2000/svg">
<path d="M0.39353 31.6V26.128L1.54553 25.744C5.19353 23.888 7.27353 20.816 7.78553 16.528L7.88153 14.992H0.87353V0.879997H14.7935V13.648C14.7935 17.04 14.0895 20.016 12.6815 22.576C9.80153 27.696 5.70553 30.704 0.39353 31.6ZM18.2495 31.6V26.128L19.4015 25.744C23.0495 23.888 25.1295 20.816 25.6415 16.528L25.7375 14.992H18.7295V0.879997H32.6495V13.648C32.6495 17.04 31.9455 20.016 30.5375 22.576C27.6575 27.696 23.5615 30.704 18.2495 31.6Z" fill="#B0855B"/>
</svg>
