<svg width="213" height="152" viewBox="0 0 213 152" fill="none" xmlns="http://www.w3.org/2000/svg">
<ellipse cx="2.35741" cy="2.46872" rx="1.77282" ry="1.73899" fill="#EBEBEB"/>
<ellipse cx="13.3397" cy="2.46872" rx="1.77282" ry="1.73899" fill="#EBEBEB"/>
<ellipse cx="24.322" cy="2.46872" rx="1.77282" ry="1.73899" fill="#EBEBEB"/>
<ellipse cx="35.3042" cy="2.46872" rx="1.77282" ry="1.73899" fill="#EBEBEB"/>
<ellipse cx="46.2865" cy="2.46872" rx="1.77282" ry="1.73899" fill="#EBEBEB"/>
<ellipse cx="57.2688" cy="2.46872" rx="1.77282" ry="1.73899" fill="#EBEBEB"/>
<ellipse cx="68.2512" cy="2.46872" rx="1.77282" ry="1.73899" fill="#EBEBEB"/>
<ellipse cx="79.2335" cy="2.46872" rx="1.77282" ry="1.73899" fill="#EBEBEB"/>
<ellipse cx="90.2157" cy="2.46872" rx="1.77282" ry="1.73899" fill="#EBEBEB"/>
<ellipse cx="101.198" cy="2.46872" rx="1.77282" ry="1.73899" fill="#EBEBEB"/>
<ellipse cx="112.18" cy="2.46872" rx="1.77282" ry="1.73899" fill="#EBEBEB"/>
<ellipse cx="123.163" cy="2.46872" rx="1.77282" ry="1.73899" fill="#EBEBEB"/>
<ellipse cx="134.145" cy="2.46872" rx="1.77282" ry="1.73899" fill="#EBEBEB"/>
<ellipse cx="145.127" cy="2.46872" rx="1.77282" ry="1.73899" fill="#EBEBEB"/>
<ellipse cx="156.109" cy="2.46872" rx="1.77282" ry="1.73899" fill="#EBEBEB"/>
<ellipse cx="167.092" cy="2.46872" rx="1.77282" ry="1.73899" fill="#EBEBEB"/>
<ellipse cx="178.074" cy="2.46872" rx="1.77282" ry="1.73899" fill="#EBEBEB"/>
<ellipse cx="189.056" cy="2.46872" rx="1.77282" ry="1.73899" fill="#EBEBEB"/>
<ellipse cx="200.039" cy="2.46872" rx="1.77282" ry="1.73899" fill="#EBEBEB"/>
<ellipse cx="211.021" cy="2.46872" rx="1.77282" ry="1.73899" fill="#EBEBEB"/>
<ellipse cx="2.35741" cy="12.2647" rx="1.77282" ry="1.73899" fill="#EBEBEB"/>
<ellipse cx="13.3397" cy="12.2647" rx="1.77282" ry="1.73899" fill="#EBEBEB"/>
<ellipse cx="24.322" cy="12.2647" rx="1.77282" ry="1.73899" fill="#EBEBEB"/>
<ellipse cx="35.3042" cy="12.2647" rx="1.77282" ry="1.73899" fill="#EBEBEB"/>
<ellipse cx="46.2865" cy="12.2647" rx="1.77282" ry="1.73899" fill="#EBEBEB"/>
<ellipse cx="57.2688" cy="12.2647" rx="1.77282" ry="1.73899" fill="#EBEBEB"/>
<ellipse cx="68.2512" cy="12.2647" rx="1.77282" ry="1.73899" fill="#EBEBEB"/>
<ellipse cx="79.2335" cy="12.2647" rx="1.77282" ry="1.73899" fill="#EBEBEB"/>
<ellipse cx="90.2157" cy="12.2647" rx="1.77282" ry="1.73899" fill="#EBEBEB"/>
<ellipse cx="101.198" cy="12.2647" rx="1.77282" ry="1.73899" fill="#EBEBEB"/>
<ellipse cx="112.18" cy="12.2647" rx="1.77282" ry="1.73899" fill="#EBEBEB"/>
<ellipse cx="123.163" cy="12.2647" rx="1.77282" ry="1.73899" fill="#EBEBEB"/>
<ellipse cx="134.145" cy="12.2647" rx="1.77282" ry="1.73899" fill="#EBEBEB"/>
<ellipse cx="145.127" cy="12.2647" rx="1.77282" ry="1.73899" fill="#EBEBEB"/>
<ellipse cx="156.109" cy="12.2647" rx="1.77282" ry="1.73899" fill="#EBEBEB"/>
<ellipse cx="167.092" cy="12.2647" rx="1.77282" ry="1.73899" fill="#EBEBEB"/>
<ellipse cx="178.074" cy="12.2647" rx="1.77282" ry="1.73899" fill="#EBEBEB"/>
<ellipse cx="189.056" cy="12.2647" rx="1.77282" ry="1.73899" fill="#EBEBEB"/>
<ellipse cx="200.039" cy="12.2647" rx="1.77282" ry="1.73899" fill="#EBEBEB"/>
<ellipse cx="211.021" cy="12.2647" rx="1.77282" ry="1.73899" fill="#EBEBEB"/>
<ellipse cx="2.35741" cy="22.0606" rx="1.77282" ry="1.73899" fill="#EBEBEB"/>
<ellipse cx="13.3397" cy="22.0606" rx="1.77282" ry="1.73899" fill="#EBEBEB"/>
<ellipse cx="24.322" cy="22.0606" rx="1.77282" ry="1.73899" fill="#EBEBEB"/>
<ellipse cx="35.3042" cy="22.0606" rx="1.77282" ry="1.73899" fill="#EBEBEB"/>
<ellipse cx="46.2865" cy="22.0606" rx="1.77282" ry="1.73899" fill="#EBEBEB"/>
<ellipse cx="57.2688" cy="22.0606" rx="1.77282" ry="1.73899" fill="#EBEBEB"/>
<ellipse cx="68.2512" cy="22.0606" rx="1.77282" ry="1.73899" fill="#EBEBEB"/>
<ellipse cx="79.2335" cy="22.0606" rx="1.77282" ry="1.73899" fill="#EBEBEB"/>
<ellipse cx="90.2157" cy="22.0606" rx="1.77282" ry="1.73899" fill="#EBEBEB"/>
<ellipse cx="101.198" cy="22.0606" rx="1.77282" ry="1.73899" fill="#EBEBEB"/>
<ellipse cx="112.18" cy="22.0606" rx="1.77282" ry="1.73899" fill="#EBEBEB"/>
<ellipse cx="123.163" cy="22.0606" rx="1.77282" ry="1.73899" fill="#EBEBEB"/>
<ellipse cx="134.145" cy="22.0606" rx="1.77282" ry="1.73899" fill="#EBEBEB"/>
<ellipse cx="145.127" cy="22.0606" rx="1.77282" ry="1.73899" fill="#EBEBEB"/>
<ellipse cx="156.109" cy="22.0606" rx="1.77282" ry="1.73899" fill="#EBEBEB"/>
<ellipse cx="167.092" cy="22.0606" rx="1.77282" ry="1.73899" fill="#EBEBEB"/>
<ellipse cx="178.074" cy="22.0606" rx="1.77282" ry="1.73899" fill="#EBEBEB"/>
<ellipse cx="189.056" cy="22.0606" rx="1.77282" ry="1.73899" fill="#EBEBEB"/>
<ellipse cx="200.039" cy="22.0606" rx="1.77282" ry="1.73899" fill="#EBEBEB"/>
<ellipse cx="211.021" cy="22.0606" rx="1.77282" ry="1.73899" fill="#EBEBEB"/>
<ellipse cx="2.35741" cy="31.8566" rx="1.77282" ry="1.73899" fill="#EBEBEB"/>
<ellipse cx="13.3397" cy="31.8566" rx="1.77282" ry="1.73899" fill="#EBEBEB"/>
<ellipse cx="24.322" cy="31.8566" rx="1.77282" ry="1.73899" fill="#EBEBEB"/>
<ellipse cx="35.3042" cy="31.8566" rx="1.77282" ry="1.73899" fill="#EBEBEB"/>
<ellipse cx="46.2865" cy="31.8566" rx="1.77282" ry="1.73899" fill="#EBEBEB"/>
<ellipse cx="57.2688" cy="31.8566" rx="1.77282" ry="1.73899" fill="#EBEBEB"/>
<ellipse cx="68.2512" cy="31.8566" rx="1.77282" ry="1.73899" fill="#EBEBEB"/>
<ellipse cx="79.2335" cy="31.8566" rx="1.77282" ry="1.73899" fill="#EBEBEB"/>
<ellipse cx="90.2157" cy="31.8566" rx="1.77282" ry="1.73899" fill="#EBEBEB"/>
<ellipse cx="101.198" cy="31.8566" rx="1.77282" ry="1.73899" fill="#EBEBEB"/>
<ellipse cx="112.18" cy="31.8566" rx="1.77282" ry="1.73899" fill="#EBEBEB"/>
<ellipse cx="123.163" cy="31.8566" rx="1.77282" ry="1.73899" fill="#EBEBEB"/>
<ellipse cx="134.145" cy="31.8566" rx="1.77282" ry="1.73899" fill="#EBEBEB"/>
<ellipse cx="145.127" cy="31.8566" rx="1.77282" ry="1.73899" fill="#EBEBEB"/>
<ellipse cx="156.109" cy="31.8566" rx="1.77282" ry="1.73899" fill="#EBEBEB"/>
<ellipse cx="167.092" cy="31.8566" rx="1.77282" ry="1.73899" fill="#EBEBEB"/>
<ellipse cx="178.074" cy="31.8566" rx="1.77282" ry="1.73899" fill="#EBEBEB"/>
<ellipse cx="189.056" cy="31.8566" rx="1.77282" ry="1.73899" fill="#EBEBEB"/>
<ellipse cx="200.039" cy="31.8566" rx="1.77282" ry="1.73899" fill="#EBEBEB"/>
<ellipse cx="211.021" cy="31.8566" rx="1.77282" ry="1.73899" fill="#EBEBEB"/>
<ellipse cx="2.35741" cy="41.6526" rx="1.77282" ry="1.73899" fill="#EBEBEB"/>
<ellipse cx="13.3397" cy="41.6526" rx="1.77282" ry="1.73899" fill="#EBEBEB"/>
<ellipse cx="24.322" cy="41.6526" rx="1.77282" ry="1.73899" fill="#EBEBEB"/>
<ellipse cx="35.3042" cy="41.6526" rx="1.77282" ry="1.73899" fill="#EBEBEB"/>
<ellipse cx="46.2865" cy="41.6526" rx="1.77282" ry="1.73899" fill="#EBEBEB"/>
<ellipse cx="57.2688" cy="41.6526" rx="1.77282" ry="1.73899" fill="#EBEBEB"/>
<ellipse cx="68.2512" cy="41.6526" rx="1.77282" ry="1.73899" fill="#EBEBEB"/>
<ellipse cx="79.2335" cy="41.6526" rx="1.77282" ry="1.73899" fill="#EBEBEB"/>
<ellipse cx="90.2157" cy="41.6526" rx="1.77282" ry="1.73899" fill="#EBEBEB"/>
<ellipse cx="101.198" cy="41.6526" rx="1.77282" ry="1.73899" fill="#EBEBEB"/>
<ellipse cx="112.18" cy="41.6526" rx="1.77282" ry="1.73899" fill="#EBEBEB"/>
<ellipse cx="123.163" cy="41.6526" rx="1.77282" ry="1.73899" fill="#EBEBEB"/>
<ellipse cx="134.145" cy="41.6526" rx="1.77282" ry="1.73899" fill="#EBEBEB"/>
<ellipse cx="145.127" cy="41.6526" rx="1.77282" ry="1.73899" fill="#EBEBEB"/>
<ellipse cx="156.109" cy="41.6526" rx="1.77282" ry="1.73899" fill="#EBEBEB"/>
<ellipse cx="167.092" cy="41.6526" rx="1.77282" ry="1.73899" fill="#EBEBEB"/>
<ellipse cx="178.074" cy="41.6526" rx="1.77282" ry="1.73899" fill="#EBEBEB"/>
<ellipse cx="189.056" cy="41.6526" rx="1.77282" ry="1.73899" fill="#EBEBEB"/>
<ellipse cx="200.039" cy="41.6526" rx="1.77282" ry="1.73899" fill="#EBEBEB"/>
<ellipse cx="211.021" cy="41.6526" rx="1.77282" ry="1.73899" fill="#EBEBEB"/>
<ellipse cx="2.35741" cy="51.4486" rx="1.77282" ry="1.73899" fill="#EBEBEB"/>
<ellipse cx="13.3397" cy="51.4486" rx="1.77282" ry="1.73899" fill="#EBEBEB"/>
<ellipse cx="24.322" cy="51.4486" rx="1.77282" ry="1.73899" fill="#EBEBEB"/>
<ellipse cx="35.3042" cy="51.4486" rx="1.77282" ry="1.73899" fill="#EBEBEB"/>
<ellipse cx="46.2865" cy="51.4486" rx="1.77282" ry="1.73899" fill="#EBEBEB"/>
<ellipse cx="57.2688" cy="51.4486" rx="1.77282" ry="1.73899" fill="#EBEBEB"/>
<ellipse cx="68.2512" cy="51.4486" rx="1.77282" ry="1.73899" fill="#EBEBEB"/>
<ellipse cx="79.2335" cy="51.4486" rx="1.77282" ry="1.73899" fill="#EBEBEB"/>
<ellipse cx="90.2157" cy="51.4486" rx="1.77282" ry="1.73899" fill="#EBEBEB"/>
<ellipse cx="101.198" cy="51.4486" rx="1.77282" ry="1.73899" fill="#EBEBEB"/>
<ellipse cx="112.18" cy="51.4486" rx="1.77282" ry="1.73899" fill="#EBEBEB"/>
<ellipse cx="123.163" cy="51.4486" rx="1.77282" ry="1.73899" fill="#EBEBEB"/>
<ellipse cx="134.145" cy="51.4486" rx="1.77282" ry="1.73899" fill="#EBEBEB"/>
<ellipse cx="145.127" cy="51.4486" rx="1.77282" ry="1.73899" fill="#EBEBEB"/>
<ellipse cx="156.109" cy="51.4486" rx="1.77282" ry="1.73899" fill="#EBEBEB"/>
<ellipse cx="167.092" cy="51.4486" rx="1.77282" ry="1.73899" fill="#EBEBEB"/>
<ellipse cx="178.074" cy="51.4486" rx="1.77282" ry="1.73899" fill="#EBEBEB"/>
<ellipse cx="189.056" cy="51.4486" rx="1.77282" ry="1.73899" fill="#EBEBEB"/>
<ellipse cx="200.039" cy="51.4486" rx="1.77282" ry="1.73899" fill="#EBEBEB"/>
<ellipse cx="211.021" cy="51.4486" rx="1.77282" ry="1.73899" fill="#EBEBEB"/>
<ellipse cx="2.35741" cy="61.2445" rx="1.77282" ry="1.73899" fill="#EBEBEB"/>
<ellipse cx="13.3397" cy="61.2445" rx="1.77282" ry="1.73899" fill="#EBEBEB"/>
<ellipse cx="24.322" cy="61.2445" rx="1.77282" ry="1.73899" fill="#EBEBEB"/>
<ellipse cx="35.3042" cy="61.2445" rx="1.77282" ry="1.73899" fill="#EBEBEB"/>
<ellipse cx="46.2865" cy="61.2445" rx="1.77282" ry="1.73899" fill="#EBEBEB"/>
<ellipse cx="57.2688" cy="61.2445" rx="1.77282" ry="1.73899" fill="#EBEBEB"/>
<ellipse cx="68.2512" cy="61.2445" rx="1.77282" ry="1.73899" fill="#EBEBEB"/>
<ellipse cx="79.2335" cy="61.2445" rx="1.77282" ry="1.73899" fill="#EBEBEB"/>
<ellipse cx="90.2157" cy="61.2445" rx="1.77282" ry="1.73899" fill="#EBEBEB"/>
<ellipse cx="101.198" cy="61.2445" rx="1.77282" ry="1.73899" fill="#EBEBEB"/>
<ellipse cx="112.18" cy="61.2445" rx="1.77282" ry="1.73899" fill="#EBEBEB"/>
<ellipse cx="123.163" cy="61.2445" rx="1.77282" ry="1.73899" fill="#EBEBEB"/>
<ellipse cx="134.145" cy="61.2445" rx="1.77282" ry="1.73899" fill="#EBEBEB"/>
<ellipse cx="145.127" cy="61.2445" rx="1.77282" ry="1.73899" fill="#EBEBEB"/>
<ellipse cx="156.109" cy="61.2445" rx="1.77282" ry="1.73899" fill="#EBEBEB"/>
<ellipse cx="167.092" cy="61.2445" rx="1.77282" ry="1.73899" fill="#EBEBEB"/>
<ellipse cx="178.074" cy="61.2445" rx="1.77282" ry="1.73899" fill="#EBEBEB"/>
<ellipse cx="189.056" cy="61.2445" rx="1.77282" ry="1.73899" fill="#EBEBEB"/>
<ellipse cx="200.039" cy="61.2445" rx="1.77282" ry="1.73899" fill="#EBEBEB"/>
<ellipse cx="211.021" cy="61.2445" rx="1.77282" ry="1.73899" fill="#EBEBEB"/>
<ellipse cx="2.35741" cy="71.0405" rx="1.77282" ry="1.73899" fill="#EBEBEB"/>
<ellipse cx="13.3397" cy="71.0405" rx="1.77282" ry="1.73899" fill="#EBEBEB"/>
<ellipse cx="24.322" cy="71.0405" rx="1.77282" ry="1.73899" fill="#EBEBEB"/>
<ellipse cx="35.3042" cy="71.0405" rx="1.77282" ry="1.73899" fill="#EBEBEB"/>
<ellipse cx="46.2865" cy="71.0405" rx="1.77282" ry="1.73899" fill="#EBEBEB"/>
<ellipse cx="57.2688" cy="71.0405" rx="1.77282" ry="1.73899" fill="#EBEBEB"/>
<ellipse cx="68.2512" cy="71.0405" rx="1.77282" ry="1.73899" fill="#EBEBEB"/>
<ellipse cx="79.2335" cy="71.0405" rx="1.77282" ry="1.73899" fill="#EBEBEB"/>
<ellipse cx="90.2157" cy="71.0405" rx="1.77282" ry="1.73899" fill="#EBEBEB"/>
<ellipse cx="101.198" cy="71.0405" rx="1.77282" ry="1.73899" fill="#EBEBEB"/>
<ellipse cx="112.18" cy="71.0405" rx="1.77282" ry="1.73899" fill="#EBEBEB"/>
<ellipse cx="123.163" cy="71.0405" rx="1.77282" ry="1.73899" fill="#EBEBEB"/>
<ellipse cx="134.145" cy="71.0405" rx="1.77282" ry="1.73899" fill="#EBEBEB"/>
<ellipse cx="145.127" cy="71.0405" rx="1.77282" ry="1.73899" fill="#EBEBEB"/>
<ellipse cx="156.109" cy="71.0405" rx="1.77282" ry="1.73899" fill="#EBEBEB"/>
<ellipse cx="167.092" cy="71.0405" rx="1.77282" ry="1.73899" fill="#EBEBEB"/>
<ellipse cx="178.074" cy="71.0405" rx="1.77282" ry="1.73899" fill="#EBEBEB"/>
<ellipse cx="189.056" cy="71.0405" rx="1.77282" ry="1.73899" fill="#EBEBEB"/>
<ellipse cx="200.039" cy="71.0405" rx="1.77282" ry="1.73899" fill="#EBEBEB"/>
<ellipse cx="211.021" cy="71.0405" rx="1.77282" ry="1.73899" fill="#EBEBEB"/>
<ellipse cx="2.35741" cy="80.8365" rx="1.77282" ry="1.73899" fill="#EBEBEB"/>
<ellipse cx="13.3397" cy="80.8365" rx="1.77282" ry="1.73899" fill="#EBEBEB"/>
<ellipse cx="24.322" cy="80.8365" rx="1.77282" ry="1.73899" fill="#EBEBEB"/>
<ellipse cx="35.3042" cy="80.8365" rx="1.77282" ry="1.73899" fill="#EBEBEB"/>
<ellipse cx="46.2865" cy="80.8365" rx="1.77282" ry="1.73899" fill="#EBEBEB"/>
<ellipse cx="57.2688" cy="80.8365" rx="1.77282" ry="1.73899" fill="#EBEBEB"/>
<ellipse cx="68.2512" cy="80.8365" rx="1.77282" ry="1.73899" fill="#EBEBEB"/>
<ellipse cx="79.2335" cy="80.8365" rx="1.77282" ry="1.73899" fill="#EBEBEB"/>
<ellipse cx="90.2157" cy="80.8365" rx="1.77282" ry="1.73899" fill="#EBEBEB"/>
<ellipse cx="101.198" cy="80.8365" rx="1.77282" ry="1.73899" fill="#EBEBEB"/>
<ellipse cx="112.18" cy="80.8365" rx="1.77282" ry="1.73899" fill="#EBEBEB"/>
<ellipse cx="123.163" cy="80.8365" rx="1.77282" ry="1.73899" fill="#EBEBEB"/>
<ellipse cx="134.145" cy="80.8365" rx="1.77282" ry="1.73899" fill="#EBEBEB"/>
<ellipse cx="145.127" cy="80.8365" rx="1.77282" ry="1.73899" fill="#EBEBEB"/>
<ellipse cx="156.109" cy="80.8365" rx="1.77282" ry="1.73899" fill="#EBEBEB"/>
<ellipse cx="167.092" cy="80.8365" rx="1.77282" ry="1.73899" fill="#EBEBEB"/>
<ellipse cx="178.074" cy="80.8365" rx="1.77282" ry="1.73899" fill="#EBEBEB"/>
<ellipse cx="189.056" cy="80.8365" rx="1.77282" ry="1.73899" fill="#EBEBEB"/>
<ellipse cx="200.039" cy="80.8365" rx="1.77282" ry="1.73899" fill="#EBEBEB"/>
<ellipse cx="211.021" cy="80.8365" rx="1.77282" ry="1.73899" fill="#EBEBEB"/>
<ellipse cx="2.35741" cy="90.6325" rx="1.77282" ry="1.73899" fill="#EBEBEB"/>
<ellipse cx="13.3397" cy="90.6325" rx="1.77282" ry="1.73899" fill="#EBEBEB"/>
<ellipse cx="24.322" cy="90.6325" rx="1.77282" ry="1.73899" fill="#EBEBEB"/>
<ellipse cx="35.3042" cy="90.6325" rx="1.77282" ry="1.73899" fill="#EBEBEB"/>
<ellipse cx="46.2865" cy="90.6325" rx="1.77282" ry="1.73899" fill="#EBEBEB"/>
<ellipse cx="57.2688" cy="90.6325" rx="1.77282" ry="1.73899" fill="#EBEBEB"/>
<ellipse cx="68.2512" cy="90.6325" rx="1.77282" ry="1.73899" fill="#EBEBEB"/>
<ellipse cx="79.2335" cy="90.6325" rx="1.77282" ry="1.73899" fill="#EBEBEB"/>
<ellipse cx="90.2157" cy="90.6325" rx="1.77282" ry="1.73899" fill="#EBEBEB"/>
<ellipse cx="101.198" cy="90.6325" rx="1.77282" ry="1.73899" fill="#EBEBEB"/>
<ellipse cx="112.18" cy="90.6325" rx="1.77282" ry="1.73899" fill="#EBEBEB"/>
<ellipse cx="123.163" cy="90.6325" rx="1.77282" ry="1.73899" fill="#EBEBEB"/>
<ellipse cx="134.145" cy="90.6325" rx="1.77282" ry="1.73899" fill="#EBEBEB"/>
<ellipse cx="145.127" cy="90.6325" rx="1.77282" ry="1.73899" fill="#EBEBEB"/>
<ellipse cx="156.109" cy="90.6325" rx="1.77282" ry="1.73899" fill="#EBEBEB"/>
<ellipse cx="167.092" cy="90.6325" rx="1.77282" ry="1.73899" fill="#EBEBEB"/>
<ellipse cx="178.074" cy="90.6325" rx="1.77282" ry="1.73899" fill="#EBEBEB"/>
<ellipse cx="189.056" cy="90.6325" rx="1.77282" ry="1.73899" fill="#EBEBEB"/>
<ellipse cx="200.039" cy="90.6325" rx="1.77282" ry="1.73899" fill="#EBEBEB"/>
<ellipse cx="211.021" cy="90.6325" rx="1.77282" ry="1.73899" fill="#EBEBEB"/>
<ellipse cx="2.35741" cy="100.428" rx="1.77282" ry="1.73899" fill="#EBEBEB"/>
<ellipse cx="13.3397" cy="100.428" rx="1.77282" ry="1.73899" fill="#EBEBEB"/>
<ellipse cx="24.322" cy="100.428" rx="1.77282" ry="1.73899" fill="#EBEBEB"/>
<ellipse cx="35.3042" cy="100.428" rx="1.77282" ry="1.73899" fill="#EBEBEB"/>
<ellipse cx="46.2865" cy="100.428" rx="1.77282" ry="1.73899" fill="#EBEBEB"/>
<ellipse cx="57.2688" cy="100.428" rx="1.77282" ry="1.73899" fill="#EBEBEB"/>
<ellipse cx="68.2512" cy="100.428" rx="1.77282" ry="1.73899" fill="#EBEBEB"/>
<ellipse cx="79.2335" cy="100.428" rx="1.77282" ry="1.73899" fill="#EBEBEB"/>
<ellipse cx="90.2157" cy="100.428" rx="1.77282" ry="1.73899" fill="#EBEBEB"/>
<ellipse cx="101.198" cy="100.428" rx="1.77282" ry="1.73899" fill="#EBEBEB"/>
<ellipse cx="112.18" cy="100.428" rx="1.77282" ry="1.73899" fill="#EBEBEB"/>
<ellipse cx="123.163" cy="100.428" rx="1.77282" ry="1.73899" fill="#EBEBEB"/>
<ellipse cx="134.145" cy="100.428" rx="1.77282" ry="1.73899" fill="#EBEBEB"/>
<ellipse cx="145.127" cy="100.428" rx="1.77282" ry="1.73899" fill="#EBEBEB"/>
<ellipse cx="156.109" cy="100.428" rx="1.77282" ry="1.73899" fill="#EBEBEB"/>
<ellipse cx="167.092" cy="100.428" rx="1.77282" ry="1.73899" fill="#EBEBEB"/>
<ellipse cx="178.074" cy="100.428" rx="1.77282" ry="1.73899" fill="#EBEBEB"/>
<ellipse cx="189.056" cy="100.428" rx="1.77282" ry="1.73899" fill="#EBEBEB"/>
<ellipse cx="200.039" cy="100.428" rx="1.77282" ry="1.73899" fill="#EBEBEB"/>
<ellipse cx="211.021" cy="100.428" rx="1.77282" ry="1.73899" fill="#EBEBEB"/>
<ellipse cx="2.35741" cy="110.224" rx="1.77282" ry="1.73899" fill="#EBEBEB"/>
<ellipse cx="13.3397" cy="110.224" rx="1.77282" ry="1.73899" fill="#EBEBEB"/>
<ellipse cx="24.322" cy="110.224" rx="1.77282" ry="1.73899" fill="#EBEBEB"/>
<ellipse cx="35.3042" cy="110.224" rx="1.77282" ry="1.73899" fill="#EBEBEB"/>
<ellipse cx="46.2865" cy="110.224" rx="1.77282" ry="1.73899" fill="#EBEBEB"/>
<ellipse cx="57.2688" cy="110.224" rx="1.77282" ry="1.73899" fill="#EBEBEB"/>
<ellipse cx="68.2512" cy="110.224" rx="1.77282" ry="1.73899" fill="#EBEBEB"/>
<ellipse cx="79.2335" cy="110.224" rx="1.77282" ry="1.73899" fill="#EBEBEB"/>
<ellipse cx="90.2157" cy="110.224" rx="1.77282" ry="1.73899" fill="#EBEBEB"/>
<ellipse cx="101.198" cy="110.224" rx="1.77282" ry="1.73899" fill="#EBEBEB"/>
<ellipse cx="112.18" cy="110.224" rx="1.77282" ry="1.73899" fill="#EBEBEB"/>
<ellipse cx="123.163" cy="110.224" rx="1.77282" ry="1.73899" fill="#EBEBEB"/>
<ellipse cx="134.145" cy="110.224" rx="1.77282" ry="1.73899" fill="#EBEBEB"/>
<ellipse cx="145.127" cy="110.224" rx="1.77282" ry="1.73899" fill="#EBEBEB"/>
<ellipse cx="156.109" cy="110.224" rx="1.77282" ry="1.73899" fill="#EBEBEB"/>
<ellipse cx="167.092" cy="110.224" rx="1.77282" ry="1.73899" fill="#EBEBEB"/>
<ellipse cx="178.074" cy="110.224" rx="1.77282" ry="1.73899" fill="#EBEBEB"/>
<ellipse cx="189.056" cy="110.224" rx="1.77282" ry="1.73899" fill="#EBEBEB"/>
<ellipse cx="200.039" cy="110.224" rx="1.77282" ry="1.73899" fill="#EBEBEB"/>
<ellipse cx="211.021" cy="110.224" rx="1.77282" ry="1.73899" fill="#EBEBEB"/>
<ellipse cx="2.35741" cy="120.02" rx="1.77282" ry="1.73899" fill="#EBEBEB"/>
<ellipse cx="13.3397" cy="120.02" rx="1.77282" ry="1.73899" fill="#EBEBEB"/>
<ellipse cx="24.322" cy="120.02" rx="1.77282" ry="1.73899" fill="#EBEBEB"/>
<ellipse cx="35.3042" cy="120.02" rx="1.77282" ry="1.73899" fill="#EBEBEB"/>
<ellipse cx="46.2865" cy="120.02" rx="1.77282" ry="1.73899" fill="#EBEBEB"/>
<ellipse cx="57.2688" cy="120.02" rx="1.77282" ry="1.73899" fill="#EBEBEB"/>
<ellipse cx="68.2512" cy="120.02" rx="1.77282" ry="1.73899" fill="#EBEBEB"/>
<ellipse cx="79.2335" cy="120.02" rx="1.77282" ry="1.73899" fill="#EBEBEB"/>
<ellipse cx="90.2157" cy="120.02" rx="1.77282" ry="1.73899" fill="#EBEBEB"/>
<ellipse cx="101.198" cy="120.02" rx="1.77282" ry="1.73899" fill="#EBEBEB"/>
<ellipse cx="112.18" cy="120.02" rx="1.77282" ry="1.73899" fill="#EBEBEB"/>
<ellipse cx="123.163" cy="120.02" rx="1.77282" ry="1.73899" fill="#EBEBEB"/>
<ellipse cx="134.145" cy="120.02" rx="1.77282" ry="1.73899" fill="#EBEBEB"/>
<ellipse cx="145.127" cy="120.02" rx="1.77282" ry="1.73899" fill="#EBEBEB"/>
<ellipse cx="156.109" cy="120.02" rx="1.77282" ry="1.73899" fill="#EBEBEB"/>
<ellipse cx="167.092" cy="120.02" rx="1.77282" ry="1.73899" fill="#EBEBEB"/>
<ellipse cx="178.074" cy="120.02" rx="1.77282" ry="1.73899" fill="#EBEBEB"/>
<ellipse cx="189.056" cy="120.02" rx="1.77282" ry="1.73899" fill="#EBEBEB"/>
<ellipse cx="200.039" cy="120.02" rx="1.77282" ry="1.73899" fill="#EBEBEB"/>
<ellipse cx="211.021" cy="120.02" rx="1.77282" ry="1.73899" fill="#EBEBEB"/>
<ellipse cx="2.35741" cy="129.816" rx="1.77282" ry="1.73899" fill="#EBEBEB"/>
<ellipse cx="13.3397" cy="129.816" rx="1.77282" ry="1.73899" fill="#EBEBEB"/>
<ellipse cx="24.322" cy="129.816" rx="1.77282" ry="1.73899" fill="#EBEBEB"/>
<ellipse cx="35.3042" cy="129.816" rx="1.77282" ry="1.73899" fill="#EBEBEB"/>
<ellipse cx="46.2865" cy="129.816" rx="1.77282" ry="1.73899" fill="#EBEBEB"/>
<ellipse cx="57.2688" cy="129.816" rx="1.77282" ry="1.73899" fill="#EBEBEB"/>
<ellipse cx="68.2512" cy="129.816" rx="1.77282" ry="1.73899" fill="#EBEBEB"/>
<ellipse cx="79.2335" cy="129.816" rx="1.77282" ry="1.73899" fill="#EBEBEB"/>
<ellipse cx="90.2157" cy="129.816" rx="1.77282" ry="1.73899" fill="#EBEBEB"/>
<ellipse cx="101.198" cy="129.816" rx="1.77282" ry="1.73899" fill="#EBEBEB"/>
<ellipse cx="112.18" cy="129.816" rx="1.77282" ry="1.73899" fill="#EBEBEB"/>
<ellipse cx="123.163" cy="129.816" rx="1.77282" ry="1.73899" fill="#EBEBEB"/>
<ellipse cx="134.145" cy="129.816" rx="1.77282" ry="1.73899" fill="#EBEBEB"/>
<ellipse cx="145.127" cy="129.816" rx="1.77282" ry="1.73899" fill="#EBEBEB"/>
<ellipse cx="156.109" cy="129.816" rx="1.77282" ry="1.73899" fill="#EBEBEB"/>
<ellipse cx="167.092" cy="129.816" rx="1.77282" ry="1.73899" fill="#EBEBEB"/>
<ellipse cx="178.074" cy="129.816" rx="1.77282" ry="1.73899" fill="#EBEBEB"/>
<ellipse cx="189.056" cy="129.816" rx="1.77282" ry="1.73899" fill="#EBEBEB"/>
<ellipse cx="200.039" cy="129.816" rx="1.77282" ry="1.73899" fill="#EBEBEB"/>
<ellipse cx="211.021" cy="129.816" rx="1.77282" ry="1.73899" fill="#EBEBEB"/>
<ellipse cx="2.35741" cy="139.612" rx="1.77282" ry="1.73899" fill="#EBEBEB"/>
<ellipse cx="13.3397" cy="139.612" rx="1.77282" ry="1.73899" fill="#EBEBEB"/>
<ellipse cx="24.322" cy="139.612" rx="1.77282" ry="1.73899" fill="#EBEBEB"/>
<ellipse cx="35.3042" cy="139.612" rx="1.77282" ry="1.73899" fill="#EBEBEB"/>
<ellipse cx="46.2865" cy="139.612" rx="1.77282" ry="1.73899" fill="#EBEBEB"/>
<ellipse cx="57.2688" cy="139.612" rx="1.77282" ry="1.73899" fill="#EBEBEB"/>
<ellipse cx="68.2512" cy="139.612" rx="1.77282" ry="1.73899" fill="#EBEBEB"/>
<ellipse cx="79.2335" cy="139.612" rx="1.77282" ry="1.73899" fill="#EBEBEB"/>
<ellipse cx="90.2157" cy="139.612" rx="1.77282" ry="1.73899" fill="#EBEBEB"/>
<ellipse cx="101.198" cy="139.612" rx="1.77282" ry="1.73899" fill="#EBEBEB"/>
<ellipse cx="112.18" cy="139.612" rx="1.77282" ry="1.73899" fill="#EBEBEB"/>
<ellipse cx="123.163" cy="139.612" rx="1.77282" ry="1.73899" fill="#EBEBEB"/>
<ellipse cx="134.145" cy="139.612" rx="1.77282" ry="1.73899" fill="#EBEBEB"/>
<ellipse cx="145.127" cy="139.612" rx="1.77282" ry="1.73899" fill="#EBEBEB"/>
<ellipse cx="156.109" cy="139.612" rx="1.77282" ry="1.73899" fill="#EBEBEB"/>
<ellipse cx="167.092" cy="139.612" rx="1.77282" ry="1.73899" fill="#EBEBEB"/>
<ellipse cx="178.074" cy="139.612" rx="1.77282" ry="1.73899" fill="#EBEBEB"/>
<ellipse cx="189.056" cy="139.612" rx="1.77282" ry="1.73899" fill="#EBEBEB"/>
<ellipse cx="200.039" cy="139.612" rx="1.77282" ry="1.73899" fill="#EBEBEB"/>
<ellipse cx="211.021" cy="139.612" rx="1.77282" ry="1.73899" fill="#EBEBEB"/>
<ellipse cx="2.35741" cy="149.408" rx="1.77282" ry="1.73899" fill="#EBEBEB"/>
<ellipse cx="13.3397" cy="149.408" rx="1.77282" ry="1.73899" fill="#EBEBEB"/>
<ellipse cx="24.322" cy="149.408" rx="1.77282" ry="1.73899" fill="#EBEBEB"/>
<ellipse cx="35.3042" cy="149.408" rx="1.77282" ry="1.73899" fill="#EBEBEB"/>
<ellipse cx="46.2865" cy="149.408" rx="1.77282" ry="1.73899" fill="#EBEBEB"/>
<ellipse cx="57.2688" cy="149.408" rx="1.77282" ry="1.73899" fill="#EBEBEB"/>
<ellipse cx="68.2512" cy="149.408" rx="1.77282" ry="1.73899" fill="#EBEBEB"/>
<ellipse cx="79.2335" cy="149.408" rx="1.77282" ry="1.73899" fill="#EBEBEB"/>
<ellipse cx="90.2157" cy="149.408" rx="1.77282" ry="1.73899" fill="#EBEBEB"/>
<ellipse cx="101.198" cy="149.408" rx="1.77282" ry="1.73899" fill="#EBEBEB"/>
<ellipse cx="112.18" cy="149.408" rx="1.77282" ry="1.73899" fill="#EBEBEB"/>
<ellipse cx="123.163" cy="149.408" rx="1.77282" ry="1.73899" fill="#EBEBEB"/>
<ellipse cx="134.145" cy="149.408" rx="1.77282" ry="1.73899" fill="#EBEBEB"/>
<ellipse cx="145.127" cy="149.408" rx="1.77282" ry="1.73899" fill="#EBEBEB"/>
<ellipse cx="156.109" cy="149.408" rx="1.77282" ry="1.73899" fill="#EBEBEB"/>
<ellipse cx="167.092" cy="149.408" rx="1.77282" ry="1.73899" fill="#EBEBEB"/>
<ellipse cx="178.074" cy="149.408" rx="1.77282" ry="1.73899" fill="#EBEBEB"/>
<ellipse cx="189.056" cy="149.408" rx="1.77282" ry="1.73899" fill="#EBEBEB"/>
<ellipse cx="200.039" cy="149.408" rx="1.77282" ry="1.73899" fill="#EBEBEB"/>
<ellipse cx="211.021" cy="149.408" rx="1.77282" ry="1.73899" fill="#EBEBEB"/>
</svg>
